<svg xmlns="http://www.w3.org/2000/svg" width="24" height="24" viewBox="0 0 24 24">
    <g fill="none" fill-rule="evenodd">
        <g>
            <g>
                <path fill="#3A589B" d="M12 24C5.373 24 0 18.627 0 12 0 5.372 5.373 0 12 0s12 5.372 12 12c0 6.627-5.373 12-12 12z" transform="translate(-292 -284) translate(292 284)"/>
                <path fill="#FFF" d="M10.306 18.528h2.698v-6.529h1.8l.238-2.25h-2.038l.002-1.126c0-.586.056-.901.898-.901h1.125v-2.25h-1.8c-2.162 0-2.923 1.092-2.923 2.927v1.35H8.958V12h1.348v6.529z" transform="translate(-292 -284) translate(292 284)"/>
            </g>
        </g>
    </g>
</svg>
