<svg xmlns="http://www.w3.org/2000/svg" width="24" height="24" viewBox="0 0 24 24">
    <g fill="none" fill-rule="evenodd">
        <g>
            <g transform="translate(-292 -718) translate(292 718)">
                <circle cx="12" cy="12" r="12" fill="#E02F2F"/>
                <g fill-rule="nonzero">
                    <path fill="#FFF" d="M6.596 0h.807c.87.006 2.978.032 4.498.15l.226.025c.31.04.762.144 1.177.607.286.309.44.886.51 1.222l.046.26s.12 1.043.138 2.16l.002.258v1.132c0 .777-.058 1.554-.1 2.01l-.04.407s-.137 1.03-.556 1.482c-.533.594-1.13.598-1.403.633l-.332.023c-1.416.093-3.195.12-4.056.129l-.615.002c-.598-.007-3.65-.046-4.659-.149l-.117-.019c-.347-.047-.952-.091-1.426-.62-.286-.308-.44-.885-.51-1.22l-.049-.28C.121 8.065.01 7.023 0 5.944V4.552l.004-.258c.013-.597.054-1.162.088-1.543l.048-.486S.277 1.235.696.782C1.229.187 1.825.184 2.098.15l.507-.035C4.055.027 5.82.005 6.596 0z" transform="translate(5 7)"/>
                    <path fill="#E02F2F" d="M5.25 2.625L5.25 7.875 9.625 5.25z" transform="translate(5 7)"/>
                </g>
            </g>
        </g>
    </g>
</svg>
