<svg xmlns="http://www.w3.org/2000/svg" width="454" height="457" viewBox="0 0 454 457">
    <g fill="none" fill-rule="evenodd">
        <g fill-rule="nonzero">
            <g transform="translate(-116 -254) translate(116 254)">
                <path fill="#5793CE" d="M447.886 254.494L450.644 254.494 450.643 262.502 447.885 262.502z" transform="rotate(75.63 449.264 258.498)"/>
                <path fill="#5793CE" d="M443.99 258.374L446.748 258.374 446.747 266.382 443.989 266.382z" transform="rotate(75.62 445.369 262.378)"/>
                <path fill="#5793CE" d="M440.023 262.246L442.781 262.246 442.78 270.254 440.022 270.254z" transform="rotate(75.62 441.401 266.25)"/>
                <path fill="#5793CE" d="M436.017 266.091L438.775 266.091 438.774 274.099 436.017 274.099z" transform="rotate(75.63 437.396 270.095)"/>
                <path fill="#F0F3F7" d="M248.485 455.081L74.327 354.355c-4.926-2.847-4.31-7.829 1.373-11.071l118.6-68.559c5.684-3.29 14.21-3.653 19.215-.806l174.158 100.726c4.926 2.847 4.31 7.829-1.373 11.071l-118.6 68.559c-5.637 3.29-14.289 3.653-19.215.806z"/>
                <path fill="#393D65" d="M392.851 178.073L216.15 76.19c-1.773-1.218-4.019-1.522-6.051-.82l-.3.127-5.799 2.74 6.303 3.15v145.397c0 7.26 4.492 15.75 10.039 18.9l171.99 99.22.976 8.095 6.304-3.008c2.08-1.213 3.388-3.953 3.388-7.875v-145.05c-.126-7.324-4.602-15.797-10.149-18.994z"/>
                <path fill="#767AA2" d="M392.998 178.176L216.159 76.192c-1.774-1.219-4.021-1.523-6.056-.82l-.3.126L204 78.241l6.308 3.153v96.041L290.74 241 400 186.027c-1.579-3.203-4-5.917-7.002-7.85z"/>
                <path fill="#555A89" d="M396.346 180L379 187.134 392.072 197 403 192.368c-.969-4.66-3.277-8.951-6.654-12.368z"/>
                <path fill="#E2E7F2" d="M387.951 351.78L211.05 249.753C205.496 246.599 201 238.067 201 230.828V85.59c0-7.27 4.48-10.567 10.033-7.365l176.918 101.978c5.553 3.154 10.049 11.686 10.049 18.926v145.254c-.016 7.287-4.512 10.599-10.049 7.397z"/>
                <path fill="#FFF" d="M381.848 341.884l-164.68-95.414c-5.064-2.924-9.168-10.716-9.168-17.386V95.88c0-6.67 4.089-9.688 9.152-6.764l164.68 95.446c5.064 2.924 9.168 10.715 9.168 17.385v133.188c.016 6.654-4.089 9.673-9.152 6.749z"/>
                <path fill="#FFF" d="M381.848 341.884l-164.68-95.414c-5.064-2.924-9.168-10.716-9.168-17.386V95.88c0-6.67 4.089-9.688 9.152-6.764l164.68 95.446c5.064 2.924 9.168 10.715 9.168 17.385v133.188c.016 6.654-4.089 9.673-9.152 6.749z"/>
                <path fill="#393D65" d="M390.968 355.617l-23.807-3.151-153.677-88.548c-4.926-2.836-13.53-2.49-19.214.788L85.335 327.43 71 325.555v8.146c.022 2.178 1.31 4.146 3.3 5.041l174.153 100.333c4.926 2.852 13.53 2.49 19.214-.787l118.597-68.302c3.157-1.843 4.736-4.222 4.736-6.46l-.032-7.91z"/>
                <path fill="#767AA2" d="M275 299.317L264.117 293H144.423l-59.075 34.158L71 325.263v8.165c.022 2.183 1.307 4.155 3.292 5.053l173.73 100.565c3.049 1.562 6.483 2.21 9.89 1.863L275 299.317z"/>
                <path fill="#5793CE" d="M77 326.838L71 326v8.172c.021 2.185 1.244 4.159 3.135 5.058L77 341v-14.162z"/>
                <path fill="#555A89" d="M250 439.929c5.266 1.716 10.984 1.36 16-.995V421h-16v18.929z"/>
                <path fill="#E2E7F2" d="M248.485 432.086L74.327 331.356c-4.926-2.846-4.31-7.828 1.373-11.07l118.6-68.56c5.684-3.29 14.21-3.654 19.215-.807L387.673 351.6c4.926 2.847 4.31 7.83-1.373 11.071l-118.6 68.56c-5.637 3.338-14.289 3.701-19.215.855z"/>
                <path fill="#FFF" d="M386.311 360.4l-118.608 67.937c-5.684 3.26-14.21 3.62-19.215.8l-174.17-99.815c-1.388-.709-2.475-1.887-3.063-3.322-.774 2.304.205 4.702 3.063 6.269l174.17 99.83c4.926 2.82 13.531 2.46 19.215-.8l118.608-67.984c3.821-2.194 5.337-5.14 4.437-7.695-.838 2.08-2.417 3.781-4.437 4.78z"/>
                <path fill="#393D65" d="M311.557 385.205l9.091 5.116c.523.303.458.829-.163 1.18l-3.94 2.214c-.646.35-1.423.38-2.094.08l-9.091-5.116c-.54-.302-.458-.828.147-1.179l3.94-2.215c.652-.35 1.433-.38 2.11-.08zm-13.012-6.962l9.09 5.118c.54.303.474.829-.147 1.18l-3.94 2.216c-.658.324-1.435.324-2.093 0l-9.09-5.102c-.54-.303-.474-.845.147-1.18l3.94-2.232c.658-.324 1.435-.324 2.093 0zm15.172-12.992l22.863 13.457c.622.365.544 1.016-.171 1.444l-7.777 4.523c-.727.397-1.593.432-2.349.095l-22.863-13.457c-.622-.365-.544-1.015.171-1.428l7.7-4.538c.747-.426 1.648-.462 2.426-.096zm-8.172 8.926l9.09 5.1c.54.301.474.825-.147 1.175l-3.94 2.255c-.643.354-1.42.389-2.093.096l-9.09-5.1c-.54-.301-.474-.826.147-1.175l3.94-2.208c.635-.369 1.412-.422 2.093-.143zm-17.989-2.986l9.092 5.105c.524.302.458.827-.163 1.177l-3.941 2.243c-.645.348-1.422.378-2.093.08l-9.093-5.106c-.54-.287-.457-.827.164-1.161l3.941-2.227c.64-.359 1.417-.4 2.093-.111zm44.563-8.942l17.448 9.638c.64.353.56.983-.176 1.397l-8.011 4.374c-.768.415-1.696.454-2.5.108l-17.447-9.654c-.64-.353-.56-.982.176-1.382l8.011-4.389c.768-.42 1.7-.454 2.5-.092zm-51.16-1.005l7.629 4.574c.61.365.534 1.016-.168 1.429l-8.986 5.4c-.737.428-1.625.47-2.395.11l-7.628-4.573c-.61-.366-.534-1.017.183-1.445l8.986-5.4c.735-.416 1.615-.451 2.38-.095zm71.373-.003l8.225 4.525c.658.36.576 1.005-.197 1.413l-8.126 4.493c-.795.414-1.75.437-2.566.063l-8.225-4.493c-.658-.361-.576-.99.197-1.414l8.126-4.492c.793-.412 1.742-.447 2.566-.095zm-50.964-1.992l8.19 4.52c.654.362.573.99-.18 1.413l-8.207 4.49c-.787.402-1.722.436-2.539.094l-8.19-4.52c-.654-.362-.573-1.005.18-1.414l8.19-4.49c.787-.42 1.737-.455 2.556-.093zm17.964-4.01l8.223 4.517c.658.36.576 1.003-.18 1.41l-8.142 4.486c-.787.428-1.745.463-2.565.094l-8.223-4.516c-.658-.361-.576-.988.18-1.412l8.142-4.469c.788-.423 1.74-.464 2.565-.11zm-53.69-3.992l11.393 6.571c-.124-.33.083-.713.605-.989l8.12-4.486c.79-.421 1.743-.456 2.565-.094l8.218 4.517c.674.361.592.989-.18 1.412l-8.12 4.486c-.799.412-1.752.447-2.581.095l-6.729-3.7c.183.357-.011.79-.559 1.104l-9.504 5.492c-.778.423-1.71.459-2.518.097l-12.91-7.447c-.66-.371-.564-1.017.178-1.453l9.505-5.492c.773-.436 1.708-.478 2.517-.113zm92.318-1.004l14.61 8.44c.636.366.557 1.002-.175 1.431l-7.869 4.546c-.766.417-1.684.452-2.48.096l-14.61-8.425c-.652-.381-.556-1.017.175-1.446l7.853-4.53c.768-.43 1.694-.471 2.496-.112zm-17.623 3.998l8.219 4.516c.657.36.575 1.003-.181 1.41l-8.136 4.485c-.788.428-1.745.463-2.564.094l-8.219-4.516c-.673-.36-.591-.987.181-1.41l8.12-4.485c.798-.411 1.752-.446 2.58-.094zm-34.005-6l8.223 4.524c.658.361.576 1.005-.18 1.414l-8.224 4.492c-.766.403-1.686.438-2.483.094l-8.223-4.523c-.658-.362-.576-.99.18-1.414l8.142-4.492c.793-.412 1.741-.447 2.565-.095zm22-1l8.223 4.524c.658.361.576 1.005-.18 1.414l-8.224 4.492c-.766.403-1.686.438-2.483.094l-8.223-4.523c-.658-.362-.576-.99.18-1.414l8.142-4.492c.793-.412 1.741-.447 2.565-.095zM205.911 318l54.597 31.763c.296.11.492.396.492.714 0 .32-.196.604-.492.715l-9.44 5.511c-.772.396-1.684.396-2.455 0l-40.788-23.72c-.499.056-1.01-.023-1.478-.239l-12.91-7.444c-.646-.371-.566-1.017.177-1.453l9.505-5.49c.746-.42 1.64-.471 2.426-.145l.366-.212zm71.427 27.247l8.22 4.518c.657.361.575.989-.198 1.413l-8.12 4.487c-.793.411-1.741.446-2.565.094l-8.218-4.519c-.674-.36-.592-1.004.18-1.412l8.12-4.487c.797-.419 1.754-.454 2.581-.094zm69.001-2.007l8.218 4.521c.658.377.576 1.005-.197 1.429l-8.12 4.474c-.797.419-1.756.448-2.58.078l-8.217-4.49c-.658-.376-.576-1.004.197-1.428l8.12-4.474c.793-.424 1.75-.465 2.58-.11zm16.332 2.002l7.903 4.52c.632.36.553 1.004-.19 1.412l-2.576 1.49c-.762.412-1.674.447-2.466.095l-7.903-4.52c-.648-.361-.57-1.004.174-1.412l2.576-1.491c.768-.412 1.685-.447 2.482-.094zm-67.303-4.001l8.19 4.51c.654.36.573 1.001-.18 1.409l-8.109 4.478c-.808.447-1.796.482-2.637.094l-8.19-4.51c-.654-.36-.573-.986.18-1.41l8.19-4.477c.79-.41 1.735-.446 2.556-.094zm21-1l8.19 4.518c.654.36.573 1.004-.18 1.412l-8.19 4.486c-.787.421-1.737.456-2.556.094l-8.19-4.517c-.654-.361-.573-.989.18-1.412l8.19-4.487c.79-.41 1.735-.446 2.556-.094zm-52.036-1.994l8.223 4.527c.658.361.576.99-.18 1.414l-8.224 4.495c-.77.387-1.683.421-2.483.094l-8.223-4.526c-.658-.361-.576-1.006.18-1.414l8.125-4.495c.797-.42 1.754-.455 2.582-.095zm70-2.007l8.223 4.515c.658.377.576 1.004-.18 1.427l-8.142 4.469c-.788.423-1.74.464-2.565.11l-8.223-4.516c-.658-.376-.576-1.004.18-1.427l8.125-4.469c.794-.423 1.752-.464 2.582-.11zm17.331 2.002l7.91 4.52c.632.36.553 1.004-.175 1.412l-2.594 1.49c-.762.412-1.675.447-2.467.095l-7.91-4.52c-.632-.361-.553-.989.175-1.412l2.578-1.491c.768-.412 1.686-.447 2.483-.094zm-69.324-4l8.218 4.513c.658.36.576 1.003-.197 1.41l-8.12 4.483c-.79.434-1.755.469-2.58.094l-8.217-4.514c-.658-.36-.576-.987.197-1.41l8.12-4.483c.797-.411 1.75-.446 2.58-.094zm20.99-1l8.22 4.515c.674.361.575 1.004-.18 1.412l-8.123 4.484c-.794.427-1.755.462-2.581.095l-8.22-4.517c-.658-.36-.576-.988.18-1.411l8.139-4.485c.792-.41 1.74-.446 2.564-.094zm-49.997-1.993l8.223 4.517c.658.361.576.989-.18 1.412l-8.142 4.487c-.793.41-1.741.446-2.565.094l-8.223-4.518c-.658-.36-.576-1.004.18-1.412l8.142-4.486c.79-.421 1.743-.456 2.565-.094zm68.036-2.01l8.19 4.516c.654.377.573 1.004-.18 1.427l-8.19 4.469c-.786.423-1.734.464-2.556.11l-8.19-4.516c-.654-.377-.573-1.004.18-1.427l8.19-4.469c.786-.423 1.734-.464 2.556-.11zm17.295 2.002l7.91 4.516c.632.36.553 1.003-.175 1.41l-2.594 1.49c-.76.421-1.677.456-2.467.095l-7.91-4.516c-.632-.36-.553-.988.175-1.411l2.594-1.49c.762-.41 1.675-.446 2.467-.094zm-67.33-4l8.222 4.524c.658.361.576 1.005-.18 1.414l-8.224 4.492c-.766.403-1.686.438-2.483.094l-8.223-4.523c-.658-.362-.576-.99.18-1.414l8.125-4.492c.799-.412 1.753-.447 2.582-.094zm21.006-1l8.218 4.525c.658.361.576 1.005-.197 1.414l-8.201 4.492c-.772.401-1.696.436-2.498.095l-8.218-4.524c-.658-.362-.576-.99.197-1.414l8.12-4.493c.797-.412 1.75-.447 2.58-.094zm-51.985-1.993l8.203 4.513c.656.36.574.987-.18 1.41l-8.106 4.482c-.81.427-1.783.462-2.625.094l-8.203-4.513c-.656-.36-.574-1.003.18-1.41l8.171-4.482c.788-.42 1.74-.455 2.56-.094zm70.014-2.009l8.19 4.508c.654.375.573 1.001-.18 1.424l-8.092 4.46c-.813.45-1.804.49-2.654.11l-8.19-4.508c-.654-.375-.573-1.001.18-1.424l8.19-4.46c.786-.423 1.734-.464 2.556-.11zm16.293 2l7.905 4.518c.648.36.554 1.004-.174 1.412l-2.577 1.49c-.766.419-1.686.454-2.482.094l-7.906-4.517c-.632-.361-.553-.989.174-1.412l2.593-1.475c.758-.423 1.674-.464 2.467-.11zm-68.293-3.999l8.19 4.497c.654.36.573 1-.18 1.406l-8.19 4.56c-.801.396-1.755.396-2.556 0l-8.19-4.498c-.654-.36-.573-.984.18-1.405l8.19-4.466c.79-.41 1.735-.444 2.556-.094zm20.964-.999l8.223 4.518c.658.36.576 1.004-.18 1.412l-8.142 4.486c-.79.421-1.743.456-2.565.094l-8.223-4.517c-.658-.361-.576-.989.18-1.412l8.125-4.486c.799-.412 1.753-.447 2.582-.095zm-50.993-1.992l8.218 4.516c.658.36.576.988-.197 1.411l-8.12 4.485c-.796.416-1.752.451-2.58.094l-8.217-4.516c-.658-.36-.576-1.004.197-1.411l8.12-4.485c.795-.421 1.753-.456 2.58-.094zm68.993-2.01l8.225 4.513c.658.376.576 1.003-.197 1.426l-8.11 4.481c-.797.419-1.754.454-2.582.094l-8.225-4.512c-.658-.376-.576-1.003.197-1.426l8.126-4.466c.789-.423 1.741-.464 2.566-.11zm-51-1.998l8.223 4.516c.658.361.576 1.004-.18 1.412l-8.125 4.484c-.795.427-1.756.462-2.582.095l-8.223-4.517c-.658-.36-.576-.988.18-1.411l8.142-4.485c.793-.41 1.741-.446 2.565-.094zm21-1l8.223 4.518c.658.36.576 1.004-.18 1.412l-8.142 4.486c-.79.421-1.743.456-2.565.094l-8.223-4.517c-.658-.361-.576-.989.18-1.412l8.142-4.487c.793-.41 1.741-.446 2.565-.094zm-78.679-4.979l12.91 7.43c.646.388.566 1.034-.177 1.47l-9.521 5.493c-.779.423-1.71.459-2.518.097l-12.91-7.447c-.646-.372-.566-1.018.177-1.454l9.505-5.492c.78-.442 1.724-.478 2.534-.097zm27.68 2.985l8.222 4.518c.658.361.576.989-.18 1.413l-8.142 4.487c-.793.411-1.741.446-2.565.094l-8.223-4.519c-.658-.36-.576-1.004.18-1.412l8.125-4.487c.797-.419 1.754-.454 2.582-.094zm69-2.007l8.222 4.524c.658.377.576 1.005-.18 1.429l-8.224 4.476c-.766.399-1.682.44-2.483.11l-8.223-4.539c-.658-.361-.576-.99.18-1.414l8.125-4.476c.794-.424 1.752-.465 2.582-.11zm-51-1.999l8.224 4.517c.658.36.576 1.004-.197 1.412l-8.126 4.485c-.79.424-1.745.459-2.566.095l-8.225-4.518c-.658-.36-.576-.988.197-1.411l8.126-4.486c.793-.41 1.742-.446 2.566-.094zm21-1l8.222 4.519c.658.36.576 1.004-.18 1.412l-8.125 4.487c-.797.419-1.754.454-2.582.094l-8.223-4.518c-.658-.361-.576-.989.18-1.413l8.142-4.487c.793-.411 1.741-.446 2.565-.094zm-51.965-1.992l8.19 4.517c.654.361.573.989-.18 1.412l-8.19 4.487c-.79.41-1.735.446-2.556.094l-8.19-4.518c-.654-.36-.573-1.004.18-1.412l8.19-4.486c.787-.421 1.737-.456 2.556-.094zm69.964-2.01l8.223 4.516c.658.377.576 1.004-.18 1.427l-8.142 4.469c-.788.423-1.74.464-2.565.11l-8.223-4.532c-.658-.36-.576-.988.18-1.411l8.142-4.469c.788-.423 1.74-.464 2.565-.11zm-96.372-.985l7.628 4.548c.61.363.534.995-.168 1.421l-8.97 5.48c-.758.396-1.653.396-2.41 0l-7.628-4.564c-.61-.363-.534-.995.168-1.421l8.985-5.369c.737-.43 1.629-.465 2.395-.095zm44.377-1.013l8.219 4.516c.657.36.575 1.003-.181 1.41l-8.136 4.485c-.788.428-1.745.463-2.564.094l-8.219-4.516c-.673-.36-.591-.987.181-1.41l8.12-4.485c.798-.411 1.752-.446 2.58-.094zm21.995-1l8.225 4.52c.658.36.576 1.004-.197 1.412l-8.126 4.488c-.792.416-1.743.451-2.566.094l-8.225-4.52c-.658-.36-.576-.988.197-1.412l8.126-4.488c.793-.411 1.742-.446 2.566-.094zm-50.964-1.987l8.19 4.507c.654.36.573.986-.18 1.409l-8.092 4.476c-.818.436-1.805.471-2.654.094l-8.19-4.508c-.654-.36-.573-1.001.18-1.408l8.19-4.476c.785-.428 1.739-.463 2.556-.094zm68.964-2.014l8.223 4.515c.658.377.576 1.004-.18 1.427l-8.142 4.469c-.788.423-1.74.464-2.565.11l-8.223-4.532c-.658-.36-.576-.988.18-1.411l8.142-4.469c.788-.423 1.74-.464 2.565-.11zm-97.372-.983l7.628 4.569c.61.364.534.999-.168 1.427l-8.986 5.393c-.737.43-1.625.47-2.395.111l-7.628-4.584c-.61-.365-.534-1 .183-1.427l8.986-5.394c.73-.433 1.619-.469 2.38-.095zm46.372-1.016l8.223 4.515c.658.361.576 1.004-.18 1.412l-8.142 4.484c-.787.428-1.745.463-2.565.094l-8.223-4.516c-.658-.36-.576-.987.18-1.41l8.142-4.485c.793-.41 1.741-.446 2.565-.094zm21-2l8.225 4.523c.658.36.576 1.005-.197 1.413l-8.126 4.49c-.795.408-1.741.443-2.566.095l-8.225-4.522c-.658-.361-.576-.99.197-1.413l8.126-4.491c.793-.412 1.742-.447 2.566-.095zm-66.562-9.984l22.81 13.42c.621.364.544 1.013-.17 1.44l-7.681 4.51c-.764.455-1.699.496-2.499.111l-22.81-13.436c-.621-.364-.544-1.013.17-1.424l7.759-4.526c.743-.433 1.647-.468 2.42-.095zm-11.811 6l7.629 4.569c.61.365.534.999-.168 1.427l-8.987 5.394c-.731.428-1.615.47-2.38.11l-7.63-4.584c-.625-.364-.549-.999.169-1.427l8.986-5.394c.731-.433 1.62-.469 2.38-.095zm96.402.982l8.184 4.508c.672.36.59 1.001-.18 1.424l-8.086 4.46c-.812.45-1.803.49-2.652.11l-8.185-4.523c-.654-.36-.572-.986.18-1.409l8.185-4.46c.785-.423 1.733-.464 2.554-.11zm-52.022-2l8.218 4.515c.658.376.576 1.003-.197 1.426l-8.12 4.467c-.791.428-1.75.47-2.58.11l-8.217-4.514c-.658-.377-.576-1.003.197-1.427l8.12-4.467c.793-.423 1.75-.464 2.58-.11zm21-1.99l8.218 4.516c.658.36.576.988-.197 1.411l-8.12 4.485c-.796.416-1.752.451-2.58.094l-8.217-4.516c-.658-.36-.576-1.004.197-1.411l8.12-4.485c.795-.421 1.753-.456 2.58-.094zm41.324 2.99l7.91 4.513c.634.376.555 1.003-.189 1.426l-2.579 1.473c-.758.423-1.675.464-2.468.11l-7.91-4.529c-.634-.36-.555-.987.189-1.41l2.579-1.473c.758-.423 1.675-.464 2.468-.11zm-23.324-6l8.218 4.515c.658.36.576 1.003-.197 1.426l-8.12 4.467c-.791.428-1.75.47-2.58.11l-8.217-4.53c-.658-.36-.576-.987.197-1.41l8.12-4.468c.793-.423 1.75-.464 2.58-.11zm-60.52-7.002l16.76 9.62c.623.356.545.991-.172 1.394l-7.795 4.43c-.739.396-1.621.425-2.385.078l-16.806-9.59c-.623-.355-.545-.99.172-1.409l7.795-4.415c.747-.418 1.65-.458 2.432-.108zm30.52 3.01l8.218 4.517c.658.36.576.988-.197 1.411l-8.12 4.486c-.796.416-1.752.451-2.58.094l-8.217-4.517c-.658-.36-.576-1.004.197-1.411l8.12-4.486c.795-.419 1.752-.454 2.58-.094zm41.324 2.993l7.91 4.528c.632.36.553.987-.175 1.41l-2.594 1.473c-.758.423-1.674.464-2.467.11l-7.91-4.513c-.632-.376-.553-1.003.175-1.426l2.578-1.473c.764-.423 1.685-.464 2.483-.11zm-23.326-6l8.219 4.54c.657.36.575.989-.181 1.413l-8.218 4.476c-.766.399-1.681.44-2.482.11l-8.219-4.523c-.673-.361-.591-1.005.181-1.43l8.12-4.476c.794-.424 1.75-.465 2.58-.11zm-36.498-7.005l13.736 7.675c.63.353.55.967-.173 1.382l-7.867 4.39c-.735.383-1.608.422-2.376.107l-13.735-7.675c-.63-.369-.55-.983.189-1.397l7.772-4.375c.754-.415 1.665-.454 2.454-.107zm47.824 6.004l7.91 4.529c.632.36.553.987-.175 1.41l-2.594 1.473c-.758.423-1.674.464-2.467.11l-7.91-4.513c-.632-.376-.553-1.003.175-1.426l2.594-1.473c.758-.423 1.674-.464 2.467-.11zm-23.33-5.987l8.222 4.517c.658.36.576.988-.18 1.411l-8.142 4.485c-.793.41-1.741.446-2.565.094l-8.223-4.516c-.658-.361-.576-1.004.18-1.412l8.125-4.484c.795-.427 1.756-.462 2.582-.095zm11.33-1.013l7.91 4.529c.632.36.553.987-.175 1.41l-2.578 1.473c-.764.423-1.685.464-2.483.11l-7.91-4.513c-.632-.376-.553-1.003.175-1.426l2.594-1.473c.758-.423 1.674-.464 2.467-.11zm-23.33-5.997l8.222 4.529c.658.361.576 1.006-.18 1.415l-8.224 4.497c-.77.387-1.683.421-2.483.094l-8.223-4.528c-.658-.362-.576-.991.18-1.416l8.125-4.497c.799-.412 1.753-.447 2.582-.094zm7.325-3.988l7.903 4.513c.648.36.57.988-.174 1.41l-2.576 1.474c-.764.423-1.684.464-2.482.11l-7.903-4.514c-.632-.36-.553-1.003.19-1.426l2.576-1.473c.757-.428 1.678-.463 2.466-.094z"/>
                <path fill="#D4ECFF" d="M2.428 287.85l65.211-38.083c13.13-7.645 25.517-8.853 34.859-3.417C111.84 251.786 117 263.198 117 278.456v4.896l-1.452.938v-5.834c0-14.718-4.892-25.669-13.776-30.835-8.884-5.165-20.735-3.941-33.391 3.418L3.169 289.138c-.353.204-.804.084-1.01-.27-.194-.357-.076-.805.269-1.018zM328.493 98.418l-29.83-16.802c-8.785-4.976-33.585-8.078-52.303 2.268-34.072 18.802-34.198 57.713-34.198 67.224 0 6.787-1.022 48.14-1.022 48.14s-.125 32.958-.235 44.627c-.11 11.668-1.022 30.155-10.043 38.88C189.672 293.572 160 306.642 160 306.642v17.227c2.687 22.046 12.039 27.227 25.963 28.487 11.253 1.007 23.229-7.118 32.784-15.984l-.582.599v20.47c2.688 22.047 12.055 27.212 25.98 28.472 13.924 1.26 28.98-11.527 39.18-22.345 10.2-10.819 18.859-27.337 23.574-42.234 4.715-14.897 3.143-34.156 3.143-34.156s.126-42.297.236-63.917c.11-21.621-1.305-18.63 5.768-40.36 7.072-21.731 31.133-38.959 31.133-38.959L389 133.314l-60.507-34.896z"/>
                <path fill="#124975" d="M231.253 383.821c-.769-1.029-9.867-6.512-12.38-18.238-.908-5.425-1.329-10.923-1.255-16.425 0 0 0-5.523.172-10.523l.346-.285v-1.978l-.283.253c0-1.14 0-2.2.126-3.165.298-5.206-3.533-16.315-3.533-16.315s-5.417-14.89-21.542-15.46c-14.335-.507-29.408 9.874-32.627 12.216v-6.725c-.204.158-.44.284-.66.427v-2.722l.33-.285v-1.962l-.266.237c0-1.123 0-2.183.125-3.085.283-5.222-3.533-16.331-3.533-16.331s-5.416-14.875-21.557-15.445c-14.32-.522-14.131 18.99-17.271 21.395v-6.725l-1.445.933v11.773c0 14.242 4.71 24.956 13.267 30.288l.299.174.235.159h.157l43.963 25.145v-.08l57.332 32.749z"/>
                <path fill="#D4ECFF" d="M145.984 270.103s-.456-.237-1.228-.552c-.252-.11-.473-.252-.725-.362l-41.039-23.495c-7.216-3.27-15.427-3.575-22.866-.85C67.528 249.428 2 288.806 2 288.806l58.614 33.847h.158L103.59 347s32.881-20.39 55.622-33.532l1.464-.851c9.307-5.342 16.693-9.344 19.008-9.959 14.016-3.719 23.78.82 26.315 2.206l-60.016-34.761zM205.56 304.75l.88.5-.88-.5z"/>
                <path fill="#124975" d="M345.453 145.829c8.26-7.631 19.14-12.33 30.2-14.212 19.517-2.111 25.275 18.342 25.275 18.342 1.129 5.871 1.813 11.82 2.046 17.795.098 2.76-.085 5.523-.546 8.246l-55.054-31.883-3.374 2.968c.484-.487.969-.722 1.453-1.256z"/>
                <path fill="#B3C8D8" d="M243.552 387c6.456 0 13.59-2.156 20.975-6.42 25.652-14.788 46.517-50.893 46.517-80.469V218.51c0-41.422 20.692-65.13 46.124-79.792 12.172-7.033 23.62-8.181 32.14-3.257 8.52 4.924 13.243 15.386 13.243 29.435v11.012c.009.396.328.715.725.724.4 0 .724-.324.724-.724v-11.012c0-14.6-4.96-25.502-13.968-30.694-9.007-5.191-20.944-4.043-33.604 3.257-25.826 14.898-46.848 40.006-46.848 81.051v81.602c0 29.12-20.471 64.659-45.777 79.21-12.094 6.97-23.416 8.118-31.904 3.147s-13.149-15.26-13.149-29.214V335.79c0-15.102-5.133-26.398-14.472-31.778-9.338-5.38-21.683-4.185-34.785 3.382l-66.138 38.449c-.346.21-.458.659-.252 1.007.204.343.648.455.992.252l66.217-38.37c12.597-7.285 24.455-8.496 33.32-3.383 8.866 5.113 13.748 15.952 13.748 30.52v17.462c0 14.49 4.929 25.313 13.873 30.489 3.748 2.122 7.99 3.219 12.299 3.179z"/>
                <path fill="#5CB5FA" d="M258.893 253.563l-24.69-13.898c-2.301-1.294-4.171-5.08-4.203-8.46 0-3.366 1.822-5.064 4.107-3.771l24.69 13.898c2.301 1.293 4.17 5.079 4.203 8.46.016 3.397-1.822 5.064-4.107 3.77z"/>
                <path fill="#AED0EB" d="M264.247 162.706l-31.462-18.045c-1.792-1.393-2.823-3.541-2.784-5.802 0-2.299 1.211-3.44 2.737-2.564L264.2 154.34c1.78 1.383 2.815 3.508 2.8 5.755 0 2.345-1.227 3.487-2.753 2.611zM243.233 185.696l-10.402-5.978c-1.802-1.397-2.849-3.548-2.83-5.82 0-2.325 1.224-3.495 2.767-2.594l10.4 5.963c1.801 1.398 2.847 3.548 2.832 5.82.016 2.34-1.225 3.51-2.767 2.609zM239.218 218.724l-6.45-3.59c-1.766-1.295-2.79-3.301-2.768-5.42 0-2.172 1.197-3.265 2.705-2.438l6.528 3.59c1.76 1.3 2.782 3.303 2.767 5.42-.062 2.172-1.275 3.265-2.782 2.438zM281.266 207.704l-27.469-15.98c-1.779-1.4-2.812-3.553-2.797-5.828 0-2.328 1.21-3.485 2.734-2.598l27.469 15.98c1.774 1.397 2.807 3.543 2.797 5.813.016 2.328-1.21 3.5-2.734 2.613zM281.233 189.71l-48.403-27.956c-1.804-1.402-2.85-3.564-2.83-5.848 0-2.336 1.224-3.497 2.766-2.607l48.42 27.955c1.793 1.402 2.832 3.557 2.813 5.833.032 2.336-1.208 3.496-2.766 2.622zM260.264 212.704L232.8 196.717c-1.785-1.388-2.821-3.538-2.799-5.81 0-2.326 1.21-3.497 2.736-2.61l27.465 15.986c1.785 1.388 2.821 3.538 2.799 5.81.015 2.326-1.21 3.497-2.736 2.61z"/>
                <path fill="#5793CE" d="M75.552 382.935s-5.602-2.84-9.043 1.38c-3.44 4.222-8.364 14.284-8.506 20.965-.142 6.682 5.303 6.348 8.554 4.761 3.25-1.587 12.72-15.425 13.304-18.14.428-2.48-.14-5.032-1.578-7.093-.931-.794-2.73-1.873-2.73-1.873z"/>
                <path fill="#D4ECFF" d="M77.735 382.34l.257 5.84c.085 1.23-.535 2.401-1.606 3.032-1.338.722-2.889.958-4.384.667-4.305-.667-4.674-1.89-4.995-7.714-.321-5.826 10.728-1.826 10.728-1.826z"/>
                <path fill="#5793CE" d="M55.532 371.935s-5.58-2.84-9.016 1.38c-3.437 4.222-8.355 14.284-8.513 20.965-.157 6.682 5.313 6.348 8.56 4.761 3.247-1.587 12.705-15.441 13.288-18.155.584-2.714-.677-6.348-1.576-7.078-.882-.671-1.797-1.296-2.743-1.873z"/>
                <path fill="#D4ECFF" d="M56.736 371.338l.257 5.838c.078 1.226-.54 2.394-1.606 3.03-1.338.719-2.887.96-4.385.682-4.305-.683-4.69-1.904-4.996-7.725-.305-5.822 10.73-1.825 10.73-1.825z"/>
                <path fill="#183271" d="M106.883 265.007c-1.66-26.89-28.99 3.95-28.99 3.95l-18.795 18.425-16.774 18.598c-3.29 3.632-4.82 8.537-4.182 13.406l6.813 52.16c.34 2.567 2.53 4.476 5.106 4.454.85-.02 1.697-.094 2.537-.22 3.396-.34 5.896-3.349 5.623-6.766l-1.237-48.778 35.38-21.43s16.163-6.877 14.519-33.8z"/>
                <path fill="#183271" d="M126.883 275.003c-1.567-26.88-28.988 3.948-28.988 3.948l-18.714 18.433-16.85 18.592c-3.308 3.64-4.839 8.564-4.181 13.448l6.812 52.124c.334 2.575 2.536 4.49 5.12 4.452.845-.013 1.688-.087 2.522-.22 3.395-.341 5.895-3.348 5.622-6.764l-1.237-48.759 35.376-21.47s16.162-6.904 14.518-33.784z"/>
                <path fill="#FFC6A0" d="M81 227.435l-4.26 8.607c-.999 2.037-1.59 4.257-1.738 6.531L73.157 272l-5.583-.142-2.538-33.046c-.077-1.02-.03-2.045.139-3.053L68.08 219 81 227.435z"/>
                <path fill="#6297CC" d="M111.408 188.978c8.03 3.302 12.93 7.141 15.92 10.62l.395.473c.128.156.252.312.373.467l.35.462c.227.305.439.607.637.905l.288.442.268.435.25.427c.04.07.08.14.118.21l.181-.419.182.283.306.512.277.49.33.614.277.542.303.614.325.687.345.76.364.837.251.6.39.965.267.686.272.722.277.757.14.392.281.81.285.848.287.885.29.92.29.96.29.996.29 1.035.29 1.073.287 1.112.286 1.151c.095.39.19.788.283 1.191l.28 1.23.14.631.273 1.291c.136.656.27 1.327.402 2.013l.261 1.394c.086.471.171.95.255 1.435l.248 1.477.12.755.237 1.54.228 1.584c.335 2.408.639 4.961.903 7.665l-.755.222-1.058.29-1.208.308-.937.223-.764.173-.81.173-.852.171-.888.167-.61.107-.937.152-.637.095-.646.088-.653.081-.658.073-.123 2.938c-.467 11.828-.671 24.487-.173 35.236.586 12.556-67.397 13.53-57.26-19.996 3.493-11.552 5.583-22.46 6.931-32.235-6.11-2.404-11.354-6.683-14.962-12.274 1.403-3.499 3.275-7.069 5.331-10.5l.623-1.025.314-.51.636-1.01c.213-.334.428-.667.643-.998l.648-.986.651-.972.327-.48.653-.95.653-.93.326-.46.648-.903.644-.883.953-1.284.624-.827.914-1.194.885-1.134.85-1.07.806-1.002 1.002-1.222 1.316-1.57.56-.656.335-.388c.23-.367.48-.671.757-.91l.145-.118.418-.467.025.132c4.064-2.821 11.998-2.423 18.334-1.202l.854.171c.281.059.558.119.83.18l.806.188.775.194c.127.032.253.065.376.098l.727.2.69.204.65.205c.209.068.411.136.606.204l.561.203c.18.068.35.135.512.201z"/>
                <path fill="#FFC6A0" d="M117.815 199.646c-1.092 4.159-6.587 6.362-12.284 4.904-5.698-1.459-9.366-6.02-8.367-10.195.999-4.174 6.587-6.362 12.285-4.903 5.697 1.458 9.443 6.02 8.366 10.194z"/>
                <path fill="#FFF" d="M109.089 206c-1.268-.002-2.53-.164-3.757-.482-2.848-.66-5.41-2.208-7.309-4.42-1.71-1.904-2.391-4.51-1.831-7.001 1.22-4.668 7.278-7.22 13.523-5.618 2.831.669 5.375 2.217 7.262 4.42 1.71 1.904 2.391 4.51 1.831 7.001-.923 3.673-4.977 6.1-9.72 6.1zm-3.13-16.042c-3.85 0-7.06 1.774-7.826 4.668-.407 1.881.13 3.842 1.44 5.259 1.646 1.859 3.844 3.15 6.276 3.688 5.165 1.322 10.157-.576 11.096-4.217.408-1.882-.13-3.843-1.44-5.26-1.63-1.884-3.824-3.203-6.26-3.765-1.076-.256-2.18-.382-3.287-.373z"/>
                <path fill="#FFC2B0" d="M102.181 187.298c.12 2.568.06 5.142-.18 7.703-.13 2.15 7.41 4.153 9.353 2.215 1.943-1.938 1.175-3.974 1.632-11.286.457-7.313-10.805 1.368-10.805 1.368z"/>
                <path fill="#EAA382" d="M113 186s-1.86 6.5-11 9l.13-5.906L113 186z"/>
                <ellipse cx="103.153" cy="173.487" fill="#FFC6A0" rx="16.059" ry="16.062" transform="rotate(-59.84 103.153 173.487)"/>
                <path fill="#EAA382" d="M107 174.024s-8.922 3.927-15.093 3.976c-6.17.049-4.77-5.284-4.77-5.284L105.425 170l1.574 4.024z"/>
                <path fill="#5B2552" d="M89.971 175.68s7.636-3.348 14.393-1.938c1.592.32 3.026 1.19 4.061 2.466.302.43.73.75 1.223.913 1.192.273 3.136-4.805 5.457-4.9 2.32-.097 3.857 1.601 1.96 4.676-1.898 3.075-1.255 6.583-.377 7.08.878.496 10.144-6.76 1.96-23.304-8.184-16.545-28.88-7.56-32.173-4.277 0 0-3.402 3.027-6.178.337.063 0-3.073 23.736 9.674 18.947z"/>
                <path fill="#396CAA" d="M119 218s-2.833 15.91-2.997 23.394c-.066 2.057 1.147 3.921 2.997 4.606v-28z"/>
                <path fill="#B1BED9" d="M112 297.73l-5.625-.752-35.987-20.528c-1.448-.656-3.124-.592-4.516.173L40.375 291.19 37 290.705v3.325c.012.506.313.962.776 1.176l40.789 23.35c1.45.652 3.126.582 4.516-.187l27.778-15.87c.64-.272 1.064-.882 1.093-1.569l.048-3.2z"/>
                <path fill="#396CAA" d="M85 284.47L82.444 283H54.26l-13.878 7.904-3.382-.427v3.351c.012.51.314.97.778 1.186l40.87 23.538c.722.36 1.532.507 2.335.426L85 284.47z"/>
                <path fill="#5793CE" d="M38.94 290.208L37.06 290v3.387c.015.515.395.98.98 1.198l.9.415v-4.792z"/>
                <path fill="#FFF" d="M79 317.757c1.318.39 2.744.308 4-.23V312h-4v5.757z"/>
                <path fill="#FFF" d="M78.59 314.555l-40.807-23.388c-1.158-.661-1.015-1.826.317-2.581l27.791-15.96c1.393-.762 3.066-.832 4.519-.189l40.807 23.404c1.158.661 1.015 1.81-.317 2.582L83.11 314.366c-1.39.773-3.068.843-4.519.19z"/>
                <path fill="#DCE7FE" d="M78.5 310.648L44.643 291.04c-.949-.554-.838-1.583.269-2.153l14.865-8.371c1.151-.635 2.535-.688 3.732-.142l33.842 19.56c.964.537.838 1.582-.27 2.151l-14.849 8.356c-1.139.663-2.526.74-3.732.206z"/>
                <path fill="#FFC6A0" d="M67.642 272.415l-.423 2.69c-.345 2.287-.282 4.613.188 6.878l.502 2.373c.27 1.337 1.368 2.377 2.76 2.614.52.091 1.054-.03 1.476-.333.423-.304.695-.764.752-1.269l.674-5.743s1.568 1.934 2.259 1.934c.69 0-.832-5.758-2.494-9.068-1.663-3.31-5.694-.076-5.694-.076z"/>
                <path fill="#173D7A" d="M77.339 317l-3.407-4.414-35.8-20.568c-1.275-.92-2.04-2.38-2.066-3.944v-29.1L34 256.315l1.94-1.111c.428-.27.975-.27 1.403 0l40.58 23.322c1.274.92 2.04 2.38 2.066 3.945v31.681c.074.658-.216 1.304-.757 1.69L77.339 317z"/>
                <path fill="#396CAA" d="M52.359 301l-2.512-1.478-13.804-24.438v-16.049L34 256.334l1.919-1.128c.423-.275.964-.275 1.388 0L77.44 278.88c.679.434 1.22 1.057 1.56 1.796L52.359 301z"/>
                <path fill="#5793CE" d="M34.903 257l-.903-.95 1.914-.888c.423-.216.963-.216 1.386 0l.7.325L34.903 257z"/>
                <path fill="#274F89" d="M78.274 279c.998.776 1.615 1.847 1.726 2.997L75.952 284 74 281.113 78.274 279z"/>
                <path fill="#B1BED9" d="M75.996 278.96L36.05 255.258c-1.134-.668-2.05 0-2.05 1.591v32.198c.024 1.594.785 3.081 2.05 4.01l39.9 23.687c1.134.668 2.05 0 2.05-1.591v-32.198c-.018-1.58-.76-3.059-2.004-3.993z"/>
                <path fill="#FFC6A0" d="M119.807 246.245c4.032.896 8.392.931 13.08.107l-1.174 10.935c-.204 1.89-1.2 3.605-2.743 4.72L95.854 286 93 281.658l25.23-22.845c1.02-.946 1.592-2.277 1.578-3.666z"/>
                <path fill="#FFC6A0" d="M96 285.15l-.626 1.294c-.727 1.475-1.865 2.716-3.282 3.579l-3.907 2.39c-1.21.749-2.74.783-3.984.09l-.168-.09c-.582-.385-.958-1.008-1.023-1.695-.065-.688.187-1.369.687-1.853l4.075-4.12s-2.29 1.729-2.93 1.022c-.641-.707 2.213-3.008 4.289-3.008 1.493-.203 2.899-.813 4.06-1.759L96 285.15z"/>
                <path fill="#396CAA" d="M78.45 232L81 208l-6 22.496c1.116.572 2.268 1.074 3.45 1.504z"/>
                <path fill="#FFF" d="M97.543 185.13L93 184c1.277 1.756 3.147 3.1 5.338 3.837 3.161.79 3.662-1.547 3.662-1.547l-4.457-1.16zM119.991 177.706c-.107 1.296-1.19 2.294-2.491 2.294-1.3 0-2.384-.998-2.491-2.294-.078-.94.379-1.842 1.182-2.336.803-.493 1.815-.493 2.618 0 .803.494 1.26 1.397 1.182 2.336z"/>
                <path fill="#4FB2FF" d="M439.906 176L433 161.917 447.094 155 454 169.083 439.906 176zm-2.71-12.613l4.135 8.42 8.44-4.132-4.15-8.434-8.424 4.146z"/>
                <path fill="#B1BED9" d="M69 114c-5.523 0-10-4.477-10-10s4.477-10 10-10 10 4.477 10 10c-.008 5.52-4.48 9.992-10 10zm0-16.923c-3.824 0-6.923 3.1-6.923 6.923 0 3.824 3.1 6.923 6.923 6.923 3.824 0 6.923-3.1 6.923-6.923 0-3.824-3.1-6.923-6.923-6.923z"/>
                <path fill="#D4ECFF" d="M15 425.5c0 4.142-3.358 7.5-7.5 7.5-4.142 0-7.5-3.358-7.5-7.5 0-4.142 3.358-7.5 7.5-7.5 1.99 0 3.897.79 5.303 2.197C14.21 421.603 15 423.51 15 425.5zM371 8.984c.006 3.643-2.184 6.93-5.548 8.328-3.365 1.397-7.24.628-9.816-1.948-2.576-2.576-3.345-6.451-1.948-9.816 1.398-3.364 4.685-5.554 8.328-5.548C366.978 0 371 4.022 371 8.984z"/>
                <path fill="#B1BED9" d="M170.632 107.162L129.165 83.38c-.633-.441-1.458-.502-2.15-.157L123 85.498l2.83 1.02v29.97c.055 2.497 1.291 4.823 3.335 6.28l39.634 22.715V149l4.062-2.323c.805-.63 1.229-1.626 1.123-2.638v-30.55c-.047-2.516-1.29-4.863-3.352-6.327z"/>
                <path fill="#E2E7F2" d="M166.671 149.591l-41.345-24.13c-2.05-1.468-3.285-3.836-3.326-6.375V87.943c0-2.47 1.482-3.618 3.326-2.534l41.345 24.13c2.035 1.481 3.266 3.84 3.326 6.375v31.143c.079 2.47-1.497 3.618-3.326 2.534z"/>
                <path fill="#FFF" d="M139 115.076c0 1.729-1.116 2.432-2.5 1.53-1.476-1.039-2.405-2.778-2.5-4.682 0-1.729 1.116-2.432 2.5-1.53 1.473 1.042 2.4 2.78 2.5 4.682zM147 119.08c0 1.725-1.116 2.427-2.5 1.526-1.476-1.042-2.405-2.783-2.5-4.686 0-1.725 1.116-2.427 2.5-1.526 1.48 1.039 2.41 2.781 2.5 4.686zM156 124.05c0 1.752-1.116 2.465-2.5 1.55-1.454-1.03-2.38-2.754-2.5-4.65 0-1.752 1.116-2.465 2.5-1.55 1.45 1.036 2.374 2.756 2.5 4.65z"/>
                <path fill="#5CB5FA" d="M372.014 219.209c.793 2.672 1.364 5.407 1.706 8.176.191 1.574.284 3.159.28 4.744V233.743l-.093 1.28v.238c0 .427-.094.838-.14 1.233-.047.396-.155.95-.233 1.329-.077.38-.186.885-.279 1.25v.205c-.093.363-.186.711-.31 1.06v.189l-.373 1.028c-.155.427-.294.743-.434 1.044-.14.3-.357.727-.512 1.028l-.093.174c-.155.284-.326.569-.496.838-.032.038-.058.08-.078.126-.186.285-.372.554-.574.823-.202.269-.403.522-.62.759l-.094.11-.636.665-.108.11-.683.601-.093.095-.714.538c-.259.184-.528.353-.806.506l-.14.095-.776.411h-.155c-.28.127-.543.253-.822.348-.28.095-.388.127-.528.174-.093-10.09-7.043-22.299-15.637-27.343-8.595-5.045-15.716-1.013-15.747 9.125 0 0 .248.427.714 1.154l-.62-.87-.9-1.376-.14-.221-.823-1.297-.155-.285-.806-1.36c-.28-.49-.528-.948-.76-1.407l-.14-.269c-.248-.443-.481-.901-.714-1.36 0-.095-.077-.174-.124-.253-.217-.443-.434-.901-.636-1.344-.202-.443-.48-1.076-.698-1.582 0-.095-.078-.19-.124-.3-.202-.475-.404-.95-.59-1.424l-.574-1.581c-.006-.079-.006-.158 0-.237-.186-.475-.341-.95-.496-1.44-.043-.091-.08-.187-.109-.284-.31-.98-.605-1.961-.869-2.942.007-.1.007-.2 0-.3-.124-.474-.232-.949-.34-1.423v-.253l-.28-1.36c-.124-.633-.202-1.107-.28-1.582v-.3c-.077-.475-.139-.95-.201-1.424l-.155-1.502v-.237-1.376c-.008-.1-.008-.2 0-.3v-1.408c.004-1.476.107-2.95.31-4.412.288-2.122.879-4.189 1.753-6.136.176-.37.347-.717.512-1.044 4.204-7.67 13.047-9.489 23.27-3.416 9.185 5.393 17.221 15.814 21.72 26.885.295.743.59 1.47.853 2.214-.093 1.297.264 2.388.59 3.479zm-23.27.759c5.29 3.163 9.587.617 9.602-5.567-.351-6.852-3.898-13.118-9.54-16.858-5.291-3.163-9.588-.617-9.604 5.582.347 6.85 3.895 13.114 9.541 16.843"/>
            </g>
        </g>
    </g>
</svg>
