<svg xmlns="http://www.w3.org/2000/svg" width="380" height="397" viewBox="0 0 380 397">
    <defs>
        <linearGradient id="92q786me0a" x1="64.511%" x2="49.9%" y1="111.021%" y2="49.693%">
            <stop offset="0%" stop-color="#393D65"/>
            <stop offset="26%" stop-color="#555A89"/>
            <stop offset="100%" stop-color="#767AA2"/>
        </linearGradient>
        <linearGradient id="zp261yhldb" x1="100.032%" x2=".412%" y1="49.947%" y2="49.947%">
            <stop offset="0%" stop-color="#393D65"/>
            <stop offset="100%" stop-color="#767AA2"/>
        </linearGradient>
        <linearGradient id="pqcla3yoic" x1=".134%" x2="94%" y1="50.008%" y2="50.008%">
            <stop offset="0%" stop-color="#B1BED9"/>
            <stop offset="60%" stop-color="#B1BED9"/>
            <stop offset="99.682%" stop-color="#DDE4F3"/>
            <stop offset="100%" stop-color="#E2E7F2"/>
        </linearGradient>
        <linearGradient id="34izcuqixd" x1="47.529%" x2="50.568%" y1="171.27%" y2="1.409%">
            <stop offset="0%" stop-color="#6297CC"/>
            <stop offset="26%" stop-color="#3478AC"/>
            <stop offset="100%" stop-color="#80C0F1"/>
        </linearGradient>
        <linearGradient id="g088uqeoqe" x1="46.238%" x2="50.865%" y1="171.27%" y2="1.409%">
            <stop offset="0%" stop-color="#6297CC"/>
            <stop offset="26%" stop-color="#3478AC"/>
            <stop offset="100%" stop-color="#80C0F1"/>
        </linearGradient>
        <linearGradient id="0alorzp73f" x1="38.371%" x2="52.675%" y1="147.26%" y2="11.03%">
            <stop offset="0%" stop-color="#6297CC"/>
            <stop offset="26%" stop-color="#3478AC"/>
            <stop offset="100%" stop-color="#80C0F1"/>
        </linearGradient>
        <linearGradient id="bqm7ryyd3g" x1="43.083%" x2="51.591%" y1="171.27%" y2="1.409%">
            <stop offset="0%" stop-color="#6297CC"/>
            <stop offset="26%" stop-color="#3478AC"/>
            <stop offset="100%" stop-color="#80C0F1"/>
        </linearGradient>
        <linearGradient id="4eql3dex5h" x1="75.544%" x2="7.491%" y1="50%" y2="100%">
            <stop offset="0%" stop-color="#2FB2EC"/>
            <stop offset="100%" stop-color="#0E58B3"/>
        </linearGradient>
    </defs>
    <g fill="none" fill-rule="evenodd">
        <g fill-rule="nonzero">
            <g>
                <path fill="#F0F3F7" d="M319.103 161.095c7.339 4.242 13.277 14.524 13.251 22.956l-.476 168.285c0 8.444-6.002 11.85-13.341 7.609L72.234 217.803c-7.339-4.254-13.277-14.524-13.251-22.968l.475-168.285c0-8.445 5.99-11.838 13.342-7.597l246.303 142.142z" transform="translate(-183 -289) translate(183 289)"/>
                <path fill="#4FCDFF" d="M280.852 345.901c2.024 1.314 3.3 3.516 3.432 5.925 0 2.185-1.556 3.072-3.445 1.98l-31.207-17.994c-2.02-1.317-3.29-3.518-3.42-5.926 0-2.185 1.556-3.059 3.446-1.966l31.194 17.981z" transform="translate(-183 -289) translate(183 289)"/>
                <path fill="url(#92q786me0a)" d="M81.617 1.825l-.424-.231-.54-.309-.54-.257-.54-.205-.527-.193h-.103L78.545.5l-.591-.205-.54-.116-.578-.103H76.244c-.21-.012-.42-.012-.63 0h-.694c-.255.015-.508.049-.758.103-.305.051-.605.124-.9.218-.378.125-.74.293-1.08.502l-8.816 5.14c.606-.348 1.266-.596 1.953-.732.738-.16 1.496-.216 2.25-.167.84.083 1.669.264 2.467.54.933.336 1.829.766 2.674 1.285l241.149 139.559 8.817-5.142L81.616 1.825z" transform="translate(-183 -289) translate(183 289)"/>
                <path fill="url(#zp261yhldb)" d="M341.158 166.383v-.643-.643l-.077-.655c0-.219 0-.45-.09-.668 0-.206-.064-.425-.103-.63-.038-.206-.09-.463-.14-.694-.052-.232-.104-.476-.168-.707-.064-.232-.116-.463-.18-.707-.064-.244-.103-.36-.167-.54v-.103c0-.103-.141-.463-.219-.694-.077-.231-.154-.45-.244-.681-.09-.231-.154-.424-.244-.643-.09-.218-.167-.437-.257-.642l-.206-.502c-.005-.038-.005-.077 0-.115l-.295-.643c-.103-.231-.219-.463-.334-.694-.116-.231-.27-.54-.412-.797l-.475-.848-.09-.142s0-.115-.09-.18c-.322-.527-.643-1.054-.99-1.568s-.553-.81-.835-1.208l-.592-.771-.514-.63-.514-.604-.514-.565-.116-.116-.398-.424-.553-.553-.591-.54-.591-.514-.296-.244h-.077l-.219-.18-.578-.45-.578-.411-.566-.373-.565-.347-.129-.077-8.817 5.141c.927.546 1.812 1.16 2.648 1.838.859.708 1.67 1.473 2.429 2.288 1.597 1.712 2.994 3.601 4.164 5.63.035.048.065.1.09.154.58.996 1.1 2.026 1.555 3.085.463 1.063.862 2.153 1.196 3.264.332 1.073.585 2.168.758 3.278.167 1.067.253 2.146.257 3.226l-.475 168.285c0 .962-.09 1.921-.27 2.866v.09c-.156.806-.406 1.592-.746 2.34-.272.551-.608 1.069-1.002 1.542-.129.154-.245.32-.373.462-.423.468-.912.87-1.452 1.196l8.817-5.142c.54-.329 1.03-.736 1.452-1.208.129-.141.244-.295.373-.45.128-.154.334-.372.475-.59.183-.296.35-.601.502-.913.103-.219.192-.437.282-.669.09-.231.168-.463.232-.694.064-.231.128-.45.18-.681.005-.099.005-.197 0-.296v-.077-.283c0-.09.064-.424.09-.642l.077-.63v-.63-.642l.475-168.285c.103-.309.103-.502.09-.707z" transform="translate(-183 -289) translate(183 289)"/>
                <path fill="url(#pqcla3yoic)" d="M319.103 149.095c7.339 4.242 13.277 14.524 13.251 22.956l-.476 168.285c0 8.444-6.002 11.85-13.341 7.609L72.234 205.803c-7.339-4.254-13.277-14.524-13.251-22.968l.475-168.285c0-8.445 5.99-11.838 13.342-7.597l246.303 142.142z" transform="translate(-183 -289) translate(183 289)"/>
                <path fill="#F9FBFC" d="M303.897 148.774c6.748 3.856 12.198 13.341 12.185 21.105l-.437 154.712c0 7.712-5.514 10.886-12.275 6.979L88.557 207.628c-6.76-3.856-12.21-13.341-12.184-21.105l.437-154.712c0-7.712 5.514-10.886 12.262-6.979l214.825 123.942zM322.984 283.23c-.994 0-1.8-.806-1.8-1.8V227.5c0-.994.806-1.8 1.8-1.8s1.8.806 1.8 1.8v53.983c-.028.973-.826 1.748-1.8 1.748z" transform="translate(-183 -289) translate(183 289)"/>
                <path fill="#FFF" d="M67.376 110.626c2.239 1.46 3.647 3.9 3.791 6.568 0 2.416-1.722 3.38-3.856 2.172-2.266-1.442-3.7-3.886-3.856-6.568.103-2.416 1.813-3.393 3.92-2.172z" transform="translate(-183 -289) translate(183 289)"/>
                <path fill="#4FCDFF" d="M215.07 133.453c.663 2.17 1.136 4.393 1.414 6.645.162 1.28.244 2.567.244 3.856v1.285l-.077 1.054v.193c0 .351-.039.686-.116 1.003 0 .45-.128.77-.18 1.08-.051.308-.154.72-.231 1.015-.006.051-.006.103 0 .154-.077.308-.154.591-.244.874-.006.051-.006.103 0 .154-.103.283-.193.566-.309.836-.115.27-.244.59-.36.848-.115.257-.295.591-.424.835l-.077.142c-.128.231-.27.463-.411.681-.003.034-.003.069 0 .103-.154.231-.309.45-.476.668-.167.219-.334.424-.514.617l-.077.077c-.167.193-.334.373-.514.553l-.103.09-.553.488-.09.077c-.192.142-.385.296-.59.425-.212.158-.436.3-.67.424l-.115.077-.643.321h-.128c-.221.108-.449.202-.681.283-.143.055-.29.102-.437.141 0-8.2-5.836-18.122-12.943-22.223-7.108-4.1-13.252-.72-13.252 7.52 0 0 .206.346.591.938l-.59-.733-.76-1.118-.115-.18c-.231-.347-.45-.707-.668-1.054-.052-.074-.1-.151-.142-.231-.23-.373-.45-.733-.655-1.106-.206-.372-.437-.77-.643-1.144l-.115-.218c-.206-.373-.399-.733-.592-1.118 0 0 0-.129-.102-.206l-.527-1.08c-.232-.488-.399-.874-.566-1.285l-.116-.244-.488-1.157-.476-1.285s0-.116-.064-.18c-.141-.386-.283-.771-.411-1.17l.013-.077c-.27-.797-.514-1.594-.72-2.39-.004-.082-.004-.163 0-.245-.103-.385-.206-.771-.296-1.157.008-.068.008-.137 0-.205l-.231-1.106c-.103-.514-.167-.912-.231-1.285v-.244c0-.386-.116-.771-.167-1.157-.052-.385-.09-.861-.116-1.22v-.194c0-.372 0-.745-.064-1.118.006-.081.006-.163 0-.244v-1.144c-.004-1.2.082-2.399.257-3.586.228-1.725.713-3.406 1.44-4.987.14-.296.282-.578.436-.848 3.47-6.234 10.81-7.712 19.28-2.79 7.609 4.396 14.267 12.854 17.994 21.85.257.605.488 1.196.707 1.8.128.848.424 1.735.694 2.622zm-19.28.617c4.383 2.57 7.944.501 7.956-4.537-.29-5.565-3.23-10.654-7.904-13.689-4.37-2.57-7.943-.5-7.956 4.538.297 5.563 3.235 10.65 7.904 13.688" transform="translate(-183 -289) translate(183 289)"/>
                <path fill="#D4ECFF" d="M248.526 200.88c1.759 1.137 2.863 3.05 2.97 5.141v12.506c0 1.89-1.286 2.648-2.982 1.697l-114.392-66.013c-1.76-1.137-2.87-3.049-2.982-5.141v-12.506c0-1.877 1.35-2.571 2.994-1.684l114.392 66zM248.45 228.09c1.756 1.139 2.86 3.05 2.968 5.141v12.506c0 1.89-1.285 2.635-2.981 1.684l-114.393-66.013c-1.763-1.134-2.872-3.048-2.981-5.141V163.76c0-1.89 1.285-2.648 2.994-1.71l114.392 66.04z" transform="translate(-183 -289) translate(183 289)"/>
                <path fill="#5CB5FA" d="M197.448 233.54c3.277 2.13 5.336 5.699 5.54 9.601v2.25c0 3.534-2.493 4.948-5.565 3.174l-29.048-16.799c-3.278-2.124-5.342-5.688-5.553-9.588v-2.262c0-3.522 2.571-4.949 5.579-3.175l29.047 16.799z" transform="translate(-183 -289) translate(183 289)"/>
                <path fill="url(#34izcuqixd)" d="M91.938 231.933s-9.871 5.694-11.388 31.696c1.285 4.807 8.843 7.326 14.653 3.534 5.81-3.791-.219-30.808-3.265-35.23z" transform="translate(-183 -289) translate(183 289)"/>
                <path fill="#FFC6A0" d="M142.116 260.03s22.596-10.077 25.63-11.786c3.032-1.71 5.32-7.97 6.426-9.293 1.105-1.324 6.259-4.37 6.08-3.046-.18 1.324-2.854 3.856-2.854 3.856.991 1.66 1.756 3.445 2.275 5.308.385 2.095-2.468 6.272-3.985 7.416-1.516 1.144-5.14 1.517-5.14 1.517s-18.42 12.339-21.466 12.532c-3.046.192-7.351-1.568-6.966-6.504z" transform="translate(-183 -289) translate(183 289)"/>
                <path fill="#5793CE" d="M96.115 383.124s-.578 4.305.193 6.066c1.369 1.973 4.062 2.492 6.067 1.17 2.077-1.693 4.039-3.522 5.873-5.476 0 0 6.26-3.328 6.851-5.14.591-1.813-1.568-3.317-3.329-2.931-1.76.385-6.85 3.637-9.19 3.637s-5.68.527-6.465 2.674z" transform="translate(-183 -289) translate(183 289)"/>
                <path fill="#113C7A" d="M89.663 291.507s5.475 90.37 6.156 92.979c.682 2.61 7.79 4.126 9.113 0 .836-2.635 2.892-86.257 2.892-86.257l-18.161-6.722z" transform="translate(-183 -289) translate(183 289)"/>
                <path fill="#5793CE" d="M114.225 388.509c-.307.263-.481.65-.476 1.054 0 1.285 0 4.01.746 5.141 1.625 2.07 4.53 2.62 6.8 1.285 4.11-2.63 8.087-5.466 11.914-8.495.783-.639 1.338-1.514 1.58-2.494.164-.669-.178-1.358-.809-1.632-1.444-.736-3.105-.928-4.678-.54-2.571.861-5.836 3.663-9.357 3.509-2.108.002-4.142.774-5.72 2.172z" transform="translate(-183 -289) translate(183 289)"/>
                <path fill="#113C7A" d="M126.307 292.484c-.399-3.753-4.884-4.974-8.997-3.702-7.905-.424-20.128-.09-20.565 6.041-.643 9.074 3.612 15.552 7.712 19.96 3.02 3.253 5.038 9.486 5.886 12.52.72 23.958 2.314 57.761 3.304 60.987 1.593 5.219 9.46 4.987 9.82-.09 1.58-17.145 2.84-95.716 2.84-95.716z" transform="translate(-183 -289) translate(183 289)"/>
                <path fill="url(#g088uqeoqe)" d="M126.333 295.312c-.926 4.64-14.139 6.953-21.85 5.72-7.712-1.235-16.08-5.026-15.797-13.985 0 0-1.182-35.809-1.182-42.852.127-4.457 1.681-8.755 4.434-12.262 0 0 4.331-4.935 17.994-2.16 0 0 11.08 2.417 16.182 10.605 0 0 3.522 8.997 2.352 27.788s-2.133 27.146-2.133 27.146z" transform="translate(-183 -289) translate(183 289)"/>
                <path fill="#EAA382" d="M99.251 219.787s1.17 6.85 0 9.974c-.193 1.568 6.645 6.85 12.712 5.488 3.522-.784 3.329-2.57 3.329-2.57s-2.93-4.897-2.57-9.589c.36-4.691-9.37-4.228-13.47-3.303z" transform="translate(-183 -289) translate(183 289)"/>
                <path fill="#EAA382" d="M122.104 206.047c0 8.916-7.228 16.144-16.143 16.144-8.916 0-16.144-7.228-16.144-16.144 0-8.916 7.228-16.143 16.144-16.143 8.912.007 16.136 7.23 16.143 16.143z" transform="translate(-183 -289) translate(183 289)"/>
                <path fill="#3A6191" d="M120.691 238.277s3.536-1.029 7.587 4.92c1.584 2.325-.906-.298 1.95 3.425l-1.739 21.587c-4.736-3.255-9.43-7.92-10.576-10.796-2.276-5.71-5.799-18.872 2.778-19.136z" transform="translate(-183 -289) translate(183 289)"/>
                <path fill="#FFC6A0" d="M122.104 207.127s.193 16.169-3.329 19.42c-3.522 3.253-8.997-3.045-17.57-5.076-8.65-2.224 7.005-19.036 7.005-19.036l13.894 4.692z" transform="translate(-183 -289) translate(183 289)"/>
                <path fill="url(#0alorzp73f)" d="M120.819 236.612s3.534-1.003 7.583 4.794 9.845 13.393 12.622 14.652c2.776 1.26 6.568-1.285 8.084-1.285 1.517 0 5.553 7.07 4.036 10.604-1.517 3.534-11.362 5.308-13.894 5.308s-18.933-9.858-21.208-15.424c-2.275-5.565-5.796-18.392 2.777-18.65z" transform="translate(-183 -289) translate(183 289)"/>
                <path fill="url(#bqm7ryyd3g)" d="M146.846 255.557c.809-1.8 2.577-2.98 4.55-3.033 3.535-.257 7.57 6.568 7.313 10.346-.257 3.78-5.758 5.759-7.043 4.808-1.285-.952 1.285-3.535-4.82-12.12z" transform="translate(-183 -289) translate(183 289)"/>
                <path fill="#5B2552" d="M115.677 192.423s5.81 1.285 7.584 10.102c-.759 3.78-6.067.759-8.085 5.81-.795 2.322-1.897 4.526-3.277 6.555l-1.286-.501s0-4.036-1.773-4.036c-1.774 0-2.275 4.794-1.286 6.812.758 1.322 1.901 2.38 3.278 3.033 0 0-2.57 4.293-3.856 4.795-1.285.5-5.797-.502-7.57-1.286-1.774-.784-5.052-4.293-7.571-8.329-2.52-4.035-4.807-11.117-3.29-15.912.7-2.671 2.55-4.894 5.05-6.066 1.452-1.824 3.37-3.219 5.553-4.036 5.673-1.843 11.892-.692 16.53 3.059z" transform="translate(-183 -289) translate(183 289)"/>
                <path fill="#4689BC" d="M118.44 233.167l-4.215-2.365s-10.77-1.002-14.64-3.534l-2.03 2.866c2.063 3.396 5.638 5.589 9.6 5.886 6.903.682 10.103-2.017 10.103-2.017l1.183-.836z" transform="translate(-183 -289) translate(183 289)"/>
                <g fill="#4FCDFF" opacity=".67">
                    <path d="M29.87 16.902v4.73c-.006 1.295-.7 2.489-1.822 3.135-1.123.646-2.504.646-3.627.001L2.095 11.812C.977 11.163.287 9.97.283 8.676V3.933C.293 2.641.99 1.451 2.112.808c1.121-.643 2.5-.642 3.62.002l22.314 12.956c1.123.646 1.818 1.84 1.825 3.136zM100.46 81.18v4.743c-.006 1.292-.699 2.483-1.82 3.127-1.12.644-2.498.642-3.617-.004L2.03 35.372C.911 34.719.221 33.52.22 32.222v-4.78c.005-1.293.698-2.484 1.819-3.128 1.12-.643 2.499-.642 3.618.004l92.979 53.675c1.14.654 1.837 1.873 1.825 3.187z" transform="translate(-183 -289) translate(183 289) translate(278.46 88.236)"/>
                    <path d="M61.99 35.462v4.743c-.005 1.292-.698 2.483-1.819 3.127-1.12.643-2.498.642-3.617-.004L1.915 11.787C.791 11.137.1 9.936.103 8.637V3.896C.101 2.599.793 1.402 1.916.756 3.039.111 4.422.116 5.54.771l54.638 31.542c1.125.65 1.816 1.85 1.813 3.149z" opacity=".53" transform="translate(-183 -289) translate(183 289) translate(278.46 88.236) translate(0 70.692)"/>
                    <path d="M85.974 96.411v4.743c-.005 1.292-.698 2.483-1.819 3.127-1.12.644-2.499.642-3.618-.004L1.98 58.919C.857 58.267.166 57.067.167 55.769v-4.73c.001-1.294.693-2.49 1.814-3.136 1.121-.647 2.502-.647 3.623 0l78.558 45.359c1.127.647 1.819 1.85 1.812 3.149z" transform="translate(-183 -289) translate(183 289) translate(278.46 88.236)"/>
                </g>
                <path fill="url(#4eql3dex5h)" d="M108.274 165.958c-10.648-4.92-19.28-17.54-19.28-28.188s8.632-14.635 19.28-8.906c10.648 5.729 19.28 18.349 19.28 28.187 0 9.839-8.632 13.826-19.28 8.907z" transform="translate(-183 -289) translate(183 289)"/>
                <path fill="#FFF" d="M98.557 145.478L101.488 143.014 105.665 148.07 114.122 142.004 118.03 146.909 106.603 155.136z" transform="translate(-183 -289) translate(183 289)"/>
                <g fill="#4FCDFF" opacity=".46">
                    <path d="M83.133 44.664c4.85 3.16 7.898 8.448 8.2 14.229 0 5.257-3.714 7.364-8.25 4.742L8.212 20.411C3.353 17.247.3 11.948 0 6.157 0 .938 3.715-1.183 8.265 1.44l74.868 43.224z" transform="translate(-183 -289) translate(183 289) translate(0 26.991)"/>
                </g>
                <g fill="#4FCDFF" opacity=".46">
                    <path d="M58.481 31.079c3.378 2.188 5.5 5.865 5.707 9.884 0 3.65-2.57 5.141-5.745 3.29L6.427 14.203C3.057 12 .937 8.326.72 4.306.72.67 3.29-.835 6.465 1.03l52.016 30.05z" transform="translate(-183 -289) translate(183 289) translate(308.473 269.464)"/>
                </g>
            </g>
        </g>
    </g>
</svg>
