<?xml version="1.0" encoding="UTF-8" standalone="no"?>
<svg
   xmlns:dc="http://purl.org/dc/elements/1.1/"
   xmlns:cc="http://creativecommons.org/ns#"
   xmlns:rdf="http://www.w3.org/1999/02/22-rdf-syntax-ns#"
   xmlns:svg="http://www.w3.org/2000/svg"
   xmlns="http://www.w3.org/2000/svg"
   xmlns:sodipodi="http://sodipodi.sourceforge.net/DTD/sodipodi-0.dtd"
   xmlns:inkscape="http://www.inkscape.org/namespaces/inkscape"
   version="1.1"
   id="svg2"
   xml:space="preserve"
   width="306.66666"
   height="306.66666"
   viewBox="0 0 306.66666 306.66666"
   sodipodi:docname="LOGO.eps"><metadata
     id="metadata8"><rdf:RDF><cc:Work
         rdf:about=""><dc:format>image/svg+xml</dc:format><dc:type
           rdf:resource="http://purl.org/dc/dcmitype/StillImage" /></cc:Work></rdf:RDF></metadata><defs
     id="defs6"><clipPath
       clipPathUnits="userSpaceOnUse"
       id="clipPath20"><path
         d="M 2196.77,2300 H 801 c -56.996,0 -103.195,-46.21 -103.207,-103.21 V 1602.21 H 103.211 C 46.207,1602.21 0,1556 0,1499 V 103.207 C 0,46.2109 46.2109,0 103.211,0 H 1498.98 c 57,0 103.2,46.2109 103.21,103.207 v 594.578 h 594.58 c 57.01,0 103.23,46.207 103.23,103.211 V 2196.81 c 0,56.99 -46.23,103.19 -103.23,103.19 z M 900,2090 H 1950 L 1455.38,1600 H 900 Z m 10,-700 h 490 V 900 H 910 Z m -210,9.96 V 844.563 L 210,350 V 1400 Z M 1399.98,210 H 350 L 844.559,700 H 1400 Z M 1600,900 v 555.42 L 2090,1950 V 900.039 Z"
         id="path18" /></clipPath><clipPath
       clipPathUnits="userSpaceOnUse"
       id="clipPath26"><path
         d="M 0,0 H 2300 V 2300 H 0 Z"
         id="path24" /></clipPath></defs><sodipodi:namedview
     pagecolor="#ffffff"
     bordercolor="#666666"
     borderopacity="1"
     objecttolerance="10"
     gridtolerance="10"
     guidetolerance="10"
     inkscape:pageopacity="0"
     inkscape:pageshadow="2"
     inkscape:window-width="640"
     inkscape:window-height="480"
     id="namedview4" /><g
     id="g10"
     inkscape:groupmode="layer"
     inkscape:label="ink_ext_XXXXXX"
     transform="matrix(1.3333333,0,0,-1.3333333,0,306.66667)"><g
       id="g12"
       transform="scale(0.1)"><g
         id="g14"><g
           id="g16"
           clip-path="url(#clipPath20)"><g
             id="g22"
             clip-path="url(#clipPath26)"><path
               d="M -50,-50 H 2350 V 2350 H -50 Z"
               style="fill:#000000;fill-opacity:1;fill-rule:nonzero;stroke:none"
               id="path28" /></g></g></g></g></g></svg>
