<svg xmlns="http://www.w3.org/2000/svg" width="24" height="28" viewBox="0 0 24 28"><path fill="#007FCB" fill-rule="evenodd" d="M26.4811716,12.0154626 L25.8305205,12.0154626 L25.8305205,8.77107594 C25.8305205,8.7506999 25.8273572,8.73047706 25.824787,8.70979462 C25.823749,8.58110383 25.7840595,8.45445575 25.6986999,8.35436292 L20.4736711,2.1877762 C20.4721389,2.18603989 20.4705078,2.18552922 20.4694698,2.18394612 C20.4383805,2.1478412 20.402052,2.11796655 20.3636476,2.0922284 C20.3522301,2.08421076 20.3408125,2.07762301 20.3288513,2.070831 C20.2956367,2.05219126 20.2603461,2.03651346 20.2240176,2.02522748 C20.2141817,2.02257196 20.2053838,2.0183844 20.1955479,2.01562674 C20.1560067,2.006026 20.1150321,2 20.0736126,2 L7.23234803,2 C6.64595145,2 6.1696278,2.49275294 6.1696278,3.09805924 L6.1696278,12.0151562 L5.51902613,12.0151562 C4.68015874,12.0151562 4,12.7176445 4,13.5844688 L4,21.7456095 C4,22.6120254 4.68015874,23.3152286 5.51902613,23.3152286 L6.1696278,23.3152286 L6.1696278,28.9019918 C6.1696278,29.5073492 6.64595145,30 7.23234803,30 L24.7677508,30 C25.3536037,30 25.8305205,29.5073492 25.8305205,28.9019918 L25.8305205,23.3152797 L26.4811716,23.3152797 C27.3197424,23.3152797 28,22.6123828 28,21.7459159 L28,13.5847752 C28,12.7176955 27.3197424,12.0154626 26.4811716,12.0154626 Z M7.23234803,3.09805924 L19.5421784,3.09805924 L19.5421784,8.71582061 C19.5421784,9.01916318 19.7803155,9.26485023 20.0735632,9.26485023 L24.7677508,9.26485023 L24.7677508,12.0154115 L7.23234803,12.0154115 L7.23234803,3.09805924 Z M15.2325787,17.993405 C13.9138784,17.5189343 13.0546967,16.7650718 13.0546967,15.5733543 C13.0546967,14.1738931 14.184637,13.1033083 16.0565193,13.1033083 C16.9514858,13.1033083 17.6108359,13.2979276 18.0814261,13.5173147 L17.6815653,15.0136004 C17.3637526,14.8549329 16.7987083,14.6238512 16.0213276,14.6238512 C15.2444905,14.6238512 14.8677613,14.9889347 14.8677613,15.4146357 C14.8677613,15.9379271 15.3149233,16.1688556 16.339684,16.5704015 C17.7404818,17.1055407 18.3998319,17.859301 18.3998319,19.01522 C18.3998319,20.3894027 17.3756644,21.5576801 15.197387,21.5576801 C14.2910029,21.5576801 13.3958387,21.3137805 12.9486273,21.058748 L13.3133952,19.5258977 C13.7963915,19.7819516 14.537938,20.0368819 15.3035058,20.0368819 C16.1274958,20.0368819 16.5632897,19.6841057 16.5632897,19.1485069 C16.5630425,18.6373185 16.1860662,18.3456705 15.2325787,17.993405 Z M5.88384349,17.4578062 C5.88384349,14.6602625 7.81513647,13.1033083 10.2162782,13.1033083 C11.1465847,13.1033083 11.8529395,13.2979276 12.1710488,13.4683918 L11.8056878,14.9399607 C11.4409198,14.7824677 10.9341988,14.6366692 10.2986229,14.6366692 C8.87405086,14.6366692 7.76768698,15.5239718 7.76768698,17.3483169 C7.76768698,18.9905543 8.70931217,20.0242681 10.3109795,20.0242681 C10.8520519,20.0242681 11.4525845,19.902829 11.8056878,19.7567751 L12.0766935,21.2043422 C11.7469196,21.3749086 11.0054225,21.5576801 10.0399243,21.5576801 C7.29675082,21.5576801 5.88384349,19.7932375 5.88384349,17.4578062 Z M24.7677508,28.6043688 L7.23234803,28.6043688 L7.23234803,23.3152797 L24.7677508,23.3152797 L24.7677508,28.6043688 Z M23.5807228,21.435526 L21.4850866,21.435526 L18.9420906,13.2373101 L20.9086247,13.2373101 L21.8737275,16.7045055 C22.1445356,17.6771422 22.3916683,18.6137252 22.5804777,19.6356424 L22.6155212,19.6356424 C22.8155998,18.6501365 23.0625843,17.6770912 23.3334912,16.7404572 L24.3460929,13.2373101 L26.2539083,13.2373101 L23.5807228,21.435526 Z" transform="translate(-4 -2)"/></svg>