<svg xmlns="http://www.w3.org/2000/svg" width="24" height="24" viewBox="0 0 24 24">
    <g fill="none" fill-rule="evenodd">
        <g fill-rule="nonzero">
            <g transform="translate(-292 -781) translate(292 781)">
                <circle cx="12" cy="12" r="12" fill="#04689B"/>
                <path fill="#FFF" d="M8.3 18.066H5.729v-8.24h2.573v8.24zM6.949 8.791h-.02c-.935 0-1.538-.63-1.538-1.432 0-.815.623-1.432 1.571-1.432s1.532.617 1.552 1.425c.006.81-.597 1.44-1.565 1.44zm11.655 9.275h-2.917v-4.263c0-1.113-.457-1.876-1.458-1.876-.77 0-1.194.51-1.393 1.008-.073.179-.06.424-.06.676v4.462H9.879s.04-7.551 0-8.241h2.891v1.293c.172-.564 1.094-1.373 2.572-1.373 1.83 0 3.269 1.187 3.269 3.74v4.574h-.007z"/>
            </g>
        </g>
    </g>
</svg>
