<?xml version="1.0" encoding="UTF-8"?>
<svg width="296px" height="156px" viewBox="0 0 296 156" version="1.1" xmlns="http://www.w3.org/2000/svg" xmlns:xlink="http://www.w3.org/1999/xlink">
    <title>logo_webinarplease</title>
    <g id="Page-1" stroke="none" stroke-width="1" fill="none" fill-rule="evenodd">
        <g id="02-Studio-live-Basique-DESK" transform="translate(-224.000000, -282.000000)" fill="#FFFFFF" fill-rule="nonzero">
            <path d="M267.621808,373.59633 C279.853055,373.59633 286.917874,382.708846 286.917874,397.115606 C286.917874,411.522365 279.827573,420.641299 267.596326,420.641299 C262.599597,420.637655 257.792366,418.7144 254.154696,415.263631 L254.154696,434.958216 C254.154696,436.883396 253.033498,438 251.141477,438 L247.032542,438 C245.12141,438 244.019324,436.870561 244.019324,434.958216 L244.019324,377.690545 C244.019324,375.765366 245.134151,374.648762 247.032542,374.648762 L251.166959,374.648762 C253.078091,374.648762 254.180177,375.7782 254.180177,377.690545 L254.180177,378.973998 C257.819601,375.526005 262.625694,373.603204 267.621808,373.59633 Z M433.143966,373.59633 C438.936795,373.59633 444.384356,375.252483 448.62348,378.564789 C450.349819,379.853624 450.177185,381.438891 448.533966,382.830833 L446.571053,384.486986 C445.259035,385.650159 443.947017,385.626896 442.558252,384.7266 L442.338324,384.577204 C439.893254,382.879363 436.995517,381.967255 434.026317,381.960869 C429.787194,381.960869 427.632466,383.249704 427.632466,385.885372 L427.634496,386.039068 L427.634496,386.039068 L427.651426,386.338706 C427.729347,387.222721 428.059748,387.976316 428.867232,388.698368 L429.154371,388.938019 C429.663412,389.335943 430.327404,389.727522 431.184859,390.129712 L431.722855,390.372434 C431.816493,390.413145 431.912143,390.453996 432.009843,390.495004 L432.620952,390.743072 L432.620952,390.743072 L433.283113,390.995721 L433.283113,390.995721 L433.998175,391.253764 L433.998175,391.253764 L434.767988,391.518016 L434.767988,391.518016 L435.594398,391.78929 L435.594398,391.78929 L436.479255,392.068401 L436.479255,392.068401 L437.920173,392.503539 C447.689977,395.384086 452.792271,399.650129 452.792271,407.144705 C452.792271,415.42547 446.826807,420.825688 435.324269,420.825688 C428.067248,420.825688 421.750123,418.82155 416.737344,414.465287 C415.183638,413.073346 415.266758,411.417193 416.826857,410.109025 L419.333247,408.104887 C420.733805,406.944935 421.971979,407.047516 423.357072,408.112026 L423.565977,408.27888 C426.679782,410.804996 430.599213,412.461149 434.435524,412.461149 C439.627331,412.461149 441.871573,410.721222 441.871573,407.666683 C441.871573,405.209944 440.83097,403.710946 437.343451,402.242657 L436.70232,401.983677 L436.70232,401.983677 L436.008671,401.724203 C435.88859,401.680853 435.76625,401.637435 435.641615,401.593926 L434.865967,401.331588 C434.732006,401.287619 434.595678,401.243511 434.456946,401.199242 L433.595436,400.931491 L433.595436,400.931491 L432.674538,400.658717 L432.674538,400.658717 L432.191282,400.520093 C431.023765,400.189507 429.934956,399.850994 428.920789,399.502474 L427.931352,399.150541 C419.569251,396.070204 416.711768,392.186056 416.711768,386.143139 C416.73095,378.738782 422.613293,373.59633 433.143966,373.59633 Z M386.501457,373.597536 C397.632414,373.597536 402.851724,378.180351 404.735566,385.42683 L404.907547,386.136353 C405.257988,387.69139 405.465439,389.360812 405.55365,391.126929 L405.585982,391.948861 C405.589988,392.086972 405.593311,392.22564 405.59596,392.364855 L405.603865,393.20666 L405.603865,393.20666 L405.603865,416.733742 C405.603865,418.666945 404.48319,419.781758 402.585684,419.781758 L398.453197,419.781758 C397.633049,419.860395 396.820998,419.564623 396.238469,418.975092 C395.65594,418.38556 395.363681,417.563748 395.441384,416.733742 L395.441384,416.031344 C392.257649,419.169577 387.520252,420.825688 382.349867,420.825688 C372.620373,420.825688 365.565217,414.729654 365.565217,406.101124 C365.565217,397.609555 372.398178,391.570724 381.888596,391.381154 L382.349867,391.376561 C387.080566,391.250067 391.7079,392.789795 395.441384,395.732712 L395.441384,391.460333 C395.454119,385.763828 393.040848,382.013414 385.291637,382.013414 C382.264629,381.97583 379.285384,382.751079 376.655908,384.255338 L376.167054,384.54591 C374.613391,385.506067 373.238018,385.506067 371.945422,384.197933 L370.398127,382.657815 C368.933609,381.175692 368.933609,379.526026 370.652825,378.301664 C375.359993,375.182443 380.875219,373.545436 386.501457,373.597536 Z M480.043172,373.59633 C492.725182,373.59633 501.404334,383.442097 501.404334,397.469736 L501.410628,397.991665 C501.410628,399.924734 500.2211,400.955705 498.345547,400.955705 L468.733211,400.955705 C469.664693,407.818101 474.605328,412.457467 481.402633,412.457467 C484.782073,412.465267 488.037902,411.156825 490.509764,408.797523 C491.875519,407.50881 493.23498,407.315503 494.682554,408.365804 L496.897972,410.015356 C498.509186,411.149424 498.855345,412.80542 497.40777,414.287439 C493.318692,418.450366 487.799785,420.793458 482.048052,420.825358 L481.490746,420.821214 C467.644383,420.821214 458.512077,411.065657 458.512077,397.211994 C458.512077,383.532307 467.10941,373.59633 480.043172,373.59633 Z M338.481114,373.59633 C351.164985,373.59633 359.845411,383.442101 359.845411,397.469746 L359.845411,397.991675 C359.845411,399.924745 358.655708,400.955716 356.77988,400.955716 L327.156904,400.955716 C328.094818,407.837446 333.029882,412.457483 339.840775,412.457483 C343.06685,412.463695 346.180089,411.271945 348.607236,409.112576 L348.949242,408.797537 C350.308902,407.508824 351.674858,407.315517 353.122644,408.365818 L355.332093,410.015371 C356.949837,411.149439 357.289752,412.805436 355.841966,414.287456 C351.754555,418.450035 346.236833,420.793203 340.48611,420.825353 L339.928901,420.821233 C326.080506,420.821233 316.94686,411.065673 316.94686,397.212003 C316.94686,383.532311 325.539159,373.59633 338.481114,373.59633 Z M299.903088,356.435082 L303.968215,356.435082 C305.847318,356.435082 306.937198,357.551052 306.937198,359.451388 L306.937198,416.365837 C306.937198,418.278928 305.834791,419.382143 303.968215,419.382143 L299.903088,419.382143 C299.096308,419.459962 298.297494,419.167267 297.724461,418.583869 C297.151427,418.000471 296.863932,417.187208 296.940368,416.365837 L296.940368,359.451388 C296.861599,358.629439 297.148336,357.814744 297.721928,357.230778 C298.295519,356.646812 299.09574,356.354888 299.903088,356.435082 Z M385.457298,399.721554 L384.973264,399.721554 C379.465403,399.721554 375.931458,401.809414 375.931458,406.081792 C375.931458,410.249967 379.295118,412.338884 384.573795,412.438303 L384.973264,412.442031 C388.846021,412.518606 392.599239,411.08327 395.454119,408.433856 L395.479588,408.433856 L395.479588,403.729729 C392.726608,401.20276 389.162512,399.781525 385.457298,399.721554 Z M265.009927,382.028616 C260.908367,382.076814 257.001205,383.797025 254.180177,386.796644 L254.180177,407.453819 C257.001205,410.453438 260.908367,412.173649 265.009927,412.221847 C272.934756,412.221847 276.553167,406.497647 276.553167,397.12844 C276.553167,387.752816 272.934756,382.028616 265.009927,382.028616 Z M480.068347,381.960077 C473.749371,381.960077 469.582874,386.14195 468.645098,393.113887 L491.302783,393.113887 C490.792985,386.23216 486.110397,381.960077 480.068347,381.960077 Z M338.499998,381.96008 C332.180094,381.96008 328.012986,386.141955 327.075072,393.113895 L349.736082,393.113895 C349.22621,386.232165 344.542934,381.96008 338.499998,381.96008 Z M511.407806,362.146789 C514.879606,362.141801 518.012217,364.231455 519.343708,367.440567 C520.675198,370.64968 519.943086,374.345626 517.489035,376.803578 C515.034984,379.261529 511.34277,379.996941 508.135479,378.666611 C504.928189,377.336281 502.838086,374.202461 502.84058,370.727646 C502.84058,365.990994 506.67526,362.150222 511.407806,362.146789 Z M508.500675,363.532135 C505.588139,364.733424 503.687497,367.574762 503.687416,370.727646 C503.67255,372.78436 504.480175,374.761595 505.930363,376.218852 C507.380552,377.676108 509.352831,378.492327 511.407806,378.485665 L511.407806,378.510411 C514.557877,378.532968 517.410325,376.651126 518.631454,373.744764 C519.852582,370.838403 519.2011,367.481806 516.981618,365.244391 C514.762135,363.006976 511.41321,362.330846 508.500675,363.532135 Z M511.370718,365.796911 C513.639239,365.796911 515.079472,366.84245 515.079472,368.667502 C515.118487,369.945423 514.243696,371.070388 512.996389,371.346308 L515.227822,375.120145 C515.41326,375.423289 515.271091,375.689313 514.894034,375.689313 L514.634422,375.689313 C514.39639,375.696898 514.175175,375.566942 514.065746,375.355236 L511.834312,371.538093 L509.157828,371.538093 L509.157828,375.188197 C509.173712,375.317652 509.129594,375.447271 509.038052,375.540097 C508.969396,375.609717 508.879715,375.652911 508.784516,375.664165 L508.403715,375.664567 C508.274176,375.678771 508.145257,375.632924 508.053716,375.540097 C507.985059,375.470478 507.943079,375.380162 507.93308,375.284742 L507.93394,366.273281 C507.918056,366.143827 507.962174,366.014208 508.053716,365.921381 C508.122372,365.851761 508.212053,365.808567 508.307251,365.797314 L511.370718,365.796911 Z M511.290362,366.817703 L509.157828,366.817703 L509.157828,370.529674 L511.290362,370.529674 C513.113832,370.529674 513.874127,369.84296 513.874127,368.673689 C513.874127,367.504418 513.113832,366.817703 511.290362,366.817703 Z M344.83598,282.477217 C345.192129,282.831533 345.364591,283.329178 345.303604,283.826569 L345.303604,306.668413 C349.497426,302.834817 354.937192,300.138521 361.064153,300.138521 C374.095185,300.138521 381.294686,309.473327 381.294686,324.705482 C381.294686,339.937638 374.095185,349.266055 361.057731,349.266055 C354.956459,349.266055 349.497426,346.544202 345.297182,342.742552 L345.297182,346.365301 C345.357772,346.861447 345.186113,347.35781 344.831503,347.711841 C344.476893,348.065872 343.97857,348.238397 343.479645,348.179869 L341.662108,348.179869 C341.162143,348.240542 340.661923,348.068968 340.305774,347.714653 C339.949624,347.360337 339.777163,346.862692 339.838149,346.365301 L339.838149,283.826569 C339.777163,283.329178 339.949624,282.831533 340.305774,282.477217 C340.661923,282.122901 341.162143,281.951328 341.662108,282.012 L343.479645,282.012 C343.979611,281.951328 344.479831,282.122901 344.83598,282.477217 Z M225.588224,302.038941 L228.022141,302.038941 C228.969619,301.99911 229.807343,302.656121 230.004861,303.59395 L242.079121,342.334233 L253.70854,303.59395 C253.891022,302.714905 254.637429,302.082291 255.509077,302.039059 L258.042564,302.038941 C258.990043,301.99911 259.827767,302.656121 260.025285,303.59395 L271.661059,342.334233 L283.735319,303.59395 C283.917454,302.717239 284.660674,302.085422 285.529987,302.039654 L288.183731,302.038941 C289.391157,302.038941 290.025055,302.781233 289.687685,303.951792 L275.010077,347.834595 C274.725282,348.737496 273.867061,349.326631 272.932034,349.26109 L270.390084,349.26109 C269.443712,349.304193 268.605188,348.649273 268.407363,347.712507 L256.866913,309.518405 L245.332817,347.712507 C245.145614,348.587741 244.40086,349.216198 243.531729,349.260631 L240.801792,349.26109 C239.922997,349.315702 239.117223,348.793266 238.792236,347.980882 L224.145668,304.140131 C223.694472,302.854999 224.323604,302.038941 225.588224,302.038941 Z M312.791438,300.605505 C325.15204,300.605505 334.103692,310.567331 334.103692,324.741586 L334.103692,325.462633 C334.130526,325.937466 333.947646,326.400107 333.603592,326.727768 C333.259538,327.055428 332.789104,327.21497 332.31715,327.16405 L296.965068,327.16405 C297.678423,337.037326 303.953417,344.241466 314.009822,344.241466 C319.116935,344.241466 323.23924,342.533724 326.635565,338.858917 C327.4373,338.049321 328.156967,337.865897 329.160714,338.586944 L330.423288,339.485089 C331.408096,340.199811 331.591169,341.097956 330.783122,341.907552 C326.639404,346.669991 320.611688,349.361051 314.306527,349.263491 C300.071001,349.238191 291.207729,338.201121 291.207729,324.830136 C291.207729,310.83298 300.04575,300.605505 312.791438,300.605505 Z M466.926752,300.605809 L467.552312,300.610191 C479.091686,300.610191 485.668367,306.267312 485.668367,316.588079 L485.668367,346.392376 C485.730905,346.884331 485.561914,347.377491 485.210431,347.72875 C484.858949,348.080009 484.364331,348.250036 483.870105,348.189493 L482.065489,348.189493 C481.570826,348.249582 481.075911,348.079659 480.723539,347.728751 C480.371166,347.377842 480.200534,346.884984 480.260874,346.392376 L480.260874,343.070241 C476.214459,347.083915 470.721575,349.315243 465.010599,349.265232 C454.011339,349.265232 447.072464,342.893061 447.072464,334.363083 C447.072464,325.964336 453.805637,319.657512 464.506119,319.465444 L465.010599,319.460934 C470.548508,319.371615 475.943392,321.213923 480.260874,324.668777 L480.260874,317.847326 C480.260874,309.950136 476.657996,305.640852 466.916883,305.640852 C462.48571,305.636533 458.164988,307.017668 454.564161,309.589447 C454.22041,309.938213 453.740101,310.118893 453.250653,310.083555 C452.761204,310.048217 452.312088,309.800434 452.022449,309.405939 L451.031181,308.3302 C450.628222,308.007307 450.417984,307.502384 450.473266,306.990273 C450.528547,306.478161 450.841748,306.029274 451.304415,305.799049 C455.826465,302.449438 461.301886,300.632779 466.926752,300.605809 L466.926752,300.605809 Z M393.627881,302.687248 C393.992185,303.04215 394.168595,303.540617 394.106212,304.03883 L394.106212,347.436467 C394.168595,347.934681 393.992185,348.433148 393.627881,348.788049 C393.263578,349.142951 392.751905,349.314807 392.240493,349.254035 L390.374773,349.254035 C389.86336,349.314807 389.351687,349.142951 388.987384,348.788049 C388.62308,348.433148 388.44667,347.934681 388.509053,347.436467 L388.509053,304.03883 C388.44667,303.540617 388.62308,303.04215 388.987384,302.687248 C389.351687,302.332347 389.86336,302.16049 390.374773,302.221262 L392.240493,302.221262 C392.751905,302.16049 393.263578,302.332347 393.627881,302.687248 Z M425.120648,300.605505 C435.102799,300.605505 441.340858,306.395431 441.340858,317.535701 L441.340858,346.039469 C441.400512,346.52833 441.231819,347.01744 440.883454,347.365679 C440.535088,347.713918 440.0458,347.882549 439.556761,347.822917 L437.778945,347.822917 C437.289906,347.882549 436.800619,347.713918 436.452253,347.365679 C436.103887,347.01744 435.935194,346.52833 435.994848,346.039469 L435.994848,318.867007 C435.994848,310.075362 432.225628,305.597903 423.964754,305.597903 C417.902591,305.597903 411.488635,309.604381 408.102619,313.610859 L408.102619,346.039469 C408.162272,346.52833 407.99358,347.01744 407.645214,347.365679 C407.296848,347.713918 406.807561,347.882549 406.318522,347.822917 L404.534424,347.822917 C404.045818,347.882999 403.556824,347.714265 403.209337,347.365678 C402.861851,347.01709 402.694781,346.527682 402.756609,346.039469 L402.756609,303.456509 C402.697343,302.968872 402.86525,302.481022 403.21211,302.133063 C403.558971,301.785104 404.046403,301.615538 404.534424,301.673061 L406.318522,301.673061 C406.807561,301.61343 407.296848,301.782061 407.645214,302.1303 C407.99358,302.478539 408.162272,302.967648 408.102619,303.456509 L408.102619,308.003046 C412.292735,303.990288 418.153873,300.605505 425.120648,300.605505 Z M515.425921,300.608024 C515.888121,300.596264 516.350458,300.625692 516.807091,300.695936 C517.294967,300.671458 517.769516,300.854716 518.106122,301.197584 C518.442727,301.540453 518.607756,302.008673 518.55787,302.479288 L518.55787,303.904715 C518.619444,304.39355 518.445319,304.882633 518.085733,305.230854 C517.726147,305.579074 517.2211,305.747696 516.71631,305.688068 C516.014501,305.612988 515.308279,305.583618 514.602407,305.600156 C508.601431,305.73596 503.057617,308.735224 499.792118,313.612685 L499.792118,346.039565 C499.853693,346.5284 499.679568,347.017483 499.319982,347.365704 C498.960395,347.713924 498.455349,347.882546 497.950559,347.822918 L496.108999,347.822918 C495.604656,347.882997 495.099913,347.714272 494.741234,347.365703 C494.382556,347.017134 494.210105,346.527752 494.273924,346.039565 L494.273924,303.458877 C494.212749,302.971265 494.386065,302.483441 494.744097,302.135501 C495.102128,301.78756 495.60526,301.618003 496.108999,301.675524 L497.950559,301.675524 C498.455349,301.615895 498.960395,301.784517 499.319982,302.132738 C499.679568,302.480958 499.853693,302.970042 499.792118,303.458877 L499.792118,307.910979 C503.552196,303.260901 509.327247,300.563225 515.425921,300.608024 Z M466.21968,324.489952 L465.646027,324.491596 C457.893804,324.491596 452.664231,327.902322 452.664231,334.363083 C452.664231,340.735255 457.893804,344.240898 465.646027,344.240898 C471.115845,344.192787 476.354156,342.03586 480.260874,338.223088 L480.260874,329.788029 C476.354378,326.416641 471.376343,324.542752 466.21968,324.489952 L466.21968,324.489952 Z M360.06226,305.218035 C354.776632,305.218035 348.855187,308.297691 345.29076,312.284631 L345.29076,337.119945 C348.842342,341.106885 354.763787,344.192929 360.06226,344.192929 C370.633516,344.192929 375.642982,337.119945 375.642982,324.705482 C375.642982,312.29102 370.633516,305.218035 360.06226,305.218035 Z M312.703057,305.633855 C304.193306,305.633855 297.388031,312.180198 296.920878,322.319123 L328.447359,322.319123 C328.018084,312.180198 321.206495,305.633855 312.703057,305.633855 Z M391.307633,283.431193 C393.662833,283.455438 395.566018,285.309504 395.590905,287.603919 C395.652437,289.134827 394.849148,290.57581 393.497549,291.359094 C392.145951,292.142377 390.462745,292.142377 389.111146,291.359094 C387.759548,290.57581 386.956259,289.134827 387.017791,287.603919 C387.046223,285.308469 388.951329,283.455373 391.307633,283.431193 Z" id="logo_webinarplease"></path>
        </g>
    </g>
</svg>