<svg xmlns="http://www.w3.org/2000/svg" width="97" height="185" viewBox="0 0 97 185"><g fill="none" fill-rule="evenodd"><rect width="97" height="185" fill="#272727" fill-rule="nonzero" rx="5"/><rect width="21" height="92" x="38.5" y="39.5" fill="#272727" fill-rule="nonzero" stroke="#707070" rx="2"/><path fill="#41B800" d="M39,108 L59,108 L59,130 C59,130.552285 58.5522847,131 58,131 L40,131 C39.4477153,131 39,130.552285 39,130 L39,108 L39,108 Z"/><path fill="#909090" d="M55.356,20 C55.5297247,20.002893 55.695182,20.074692 55.8159606,20.1995966 C55.9367393,20.3245013 56.002942,20.4922761 56,20.666 C56.0477979,24.2636111 53.4212837,27.3237654 49.8864016,27.8435221 L49.644,27.875 L49.644,29.668 L52.033,29.668 C52.2067247,29.670893 52.372182,29.742692 52.4929606,29.8675966 C52.6137393,29.9925013 52.679942,30.1602761 52.677,30.334 C52.679942,30.5077239 52.6137393,30.6754987 52.4929606,30.8004034 C52.3963377,30.9003271 52.2711205,30.9662632 52.1359514,30.9901219 L52.033,31 L45.966,31 C45.7922753,30.997107 45.626818,30.925308 45.5060394,30.8004034 C45.3852607,30.6754987 45.319058,30.5077239 45.322,30.334 C45.319058,30.1602761 45.3852607,29.9925013 45.5060394,29.8675966 C45.6026623,29.7676729 45.7278795,29.7017368 45.8630486,29.6778781 L45.966,29.668 L48.356,29.668 L48.356,27.875 C44.6997151,27.4621434 41.9515835,24.3452018 42,20.666 C41.997058,20.4922761 42.0632607,20.3245013 42.1840394,20.1995966 C42.304818,20.074692 42.4702753,20.002893 42.644,20 C42.8177247,20.002893 42.983182,20.074692 43.1039606,20.1995966 C43.2247393,20.3245013 43.290942,20.4922761 43.288,20.666 C43.2384089,23.8729839 45.7931679,26.5154062 49,26.574 C52.2068321,26.5154062 54.7615911,23.8729839 54.712,20.666 C54.709058,20.4922761 54.7752607,20.3245013 54.8960394,20.1995966 C55.016818,20.074692 55.1822753,20.002893 55.356,20 Z M49,9 C51.1946293,9.05608289 52.9436872,10.8244641 52.9997428,12.9953411 L52.9997428,21.0046589 C52.9436872,23.1755359 51.1946293,24.9439171 49,25 C46.8053707,24.9439171 45.0563128,23.1755359 45.0002572,21.0046589 L45.0002572,12.9953411 C45.0563128,10.8244641 46.8053707,9.05608289 49,9 Z"/></g></svg>